<svg xmlns="http://www.w3.org/2000/svg" viewBox="0 0 472.04 472.04"><defs><style>.cls-1{opacity:0.1;}.cls-2{fill:#0072d9;}.cls-3{fill:#ffd34d;}.cls-4{fill:#f2ba49;}.cls-5{fill:#005eb3;}.cls-6{fill:#00599b;}.cls-7{fill:#fff;}</style></defs><title>captain</title><g id="Layer_2" data-name="Layer 2"><g id="Layer_1-2" data-name="Layer 1"><g class="cls-1"><circle class="cls-2" cx="236.02" cy="236.02" r="236.02"/></g><g class="cls-1"><circle class="cls-2" cx="236.02" cy="236.02" r="179.03"/></g><path class="cls-3" d="M236.7,367.79C124.63,331,132.53,189.89,132.53,189.89,177.64,144.79,236,138.78,236,138.78s58.38,6,103.48,51.11c0,0,7.91,141.07-104.16,177.9Z"/><path class="cls-4" d="M236,351.71l-1.83-.72c-78.86-31.12-86.37-124.49-86.8-152.36l0-2.27,1.69-1.52c34.56-31,74.7-39.13,86.18-40.87l.76-.11.76.11c11.55,1.82,51.9,10.11,86.23,40.87l1.69,1.52,0,2.27a234.57,234.57,0,0,1-9.78,62.94c-13.68,44.62-39.59,74.7-77,89.42ZM157.41,200.76C158.19,229.29,166.6,312.2,236,341c33.47-13.81,56.78-41.5,69.3-82.33a224,224,0,0,0,9.28-57.88C282.81,173.18,245.12,165.47,236,164,226.86,165.42,189.41,172.93,157.41,200.76Z"/><polygon class="cls-5" points="45.48 270 72.83 297.35 45.48 324.69 45.48 325.3 132.53 325.3 132.53 270 45.48 270"/><polygon class="cls-6" points="101.44 309.67 132.53 325.3 132.53 309.67 101.44 309.67"/><polygon class="cls-5" points="426.56 270 399.21 297.35 426.56 324.69 426.56 325.3 339.5 325.3 339.5 270 426.56 270"/><path class="cls-4" d="M227.93,201.2a11.64,11.64,0,0,1-.91,4.62,21.32,21.32,0,0,1-2.43,4.28,35.55,35.55,0,0,1-3.38,4c-1.25,1.27-2.49,2.48-3.7,3.63-.63.59-1.31,1.26-2,2s-1.43,1.5-2.1,2.26-1.26,1.47-1.78,2.13a5.3,5.3,0,0,0-1,1.62l18.82-.14.06,7.89-29.18.22a10.38,10.38,0,0,1-.14-1.77c0-.71,0-1.22,0-1.51a15.4,15.4,0,0,1,.94-5.57,20.78,20.78,0,0,1,2.52-4.72,29.16,29.16,0,0,1,3.54-4.1l3.92-3.82,2.82-2.77a32.48,32.48,0,0,0,2.32-2.54,11.3,11.3,0,0,0,1.56-2.48,6,6,0,0,0,.55-2.5,4.48,4.48,0,0,0-1.61-3.9,6.55,6.55,0,0,0-3.92-1.11,9.5,9.5,0,0,0-3.19.56,16.56,16.56,0,0,0-2.71,1.28,18.92,18.92,0,0,0-2.1,1.47,17.54,17.54,0,0,0-1.32,1.18l-4.72-6.53a23.81,23.81,0,0,1,6.44-4.31,18.89,18.89,0,0,1,7.91-1.74,21.8,21.8,0,0,1,6.64.84,12.25,12.25,0,0,1,4.6,2.46A9.62,9.62,0,0,1,227,196,14.89,14.89,0,0,1,227.93,201.2Z"/><path class="cls-4" d="M262.94,233.21c-1.26-2.42-2.62-4.88-4.11-7.37a26.7,26.7,0,0,0-5.09-6.31q-.87,1-2.22,2.73T248.84,226c-.9,1.31-1.73,2.66-2.51,4.07s-1.36,2.5-1.73,3.3l-11.25.08a115.78,115.78,0,0,1,6.45-10.63q3.72-5.49,8.3-11.66l-14.44-21.48,11.93-.09L254,202.18l8.43-12.73,11.24-.09-14.05,21.23a135.06,135.06,0,0,1,9.3,12.77q3.65,5.8,5.77,9.77Z"/><path class="cls-4" d="M212.22,235.49a6.6,6.6,0,0,1,3.61.8,3,3,0,0,1,1.28,2.7,3,3,0,0,1-1.25,2.74,6.57,6.57,0,0,1-3.63.87h-.75l0,3.51-2.36,0-.08-10.35a13.37,13.37,0,0,1,1.63-.22C211.28,235.52,211.79,235.5,212.22,235.49Zm.17,2-.51,0-.43,0,0,3h.74a4,4,0,0,0,1.85-.35,1.27,1.27,0,0,0,.61-1.25,1.53,1.53,0,0,0-.16-.72,1.2,1.2,0,0,0-.46-.46,1.91,1.91,0,0,0-.72-.24A6.86,6.86,0,0,0,212.39,237.51Z"/><path class="cls-4" d="M228.87,240.74a6.41,6.41,0,0,1-.38,2.37,4.92,4.92,0,0,1-1.09,1.72,4.44,4.44,0,0,1-1.65,1,6.08,6.08,0,0,1-2.07.37,6,6,0,0,1-2-.34,4.67,4.67,0,0,1-1.67-1,4.93,4.93,0,0,1-1.14-1.71,6.38,6.38,0,0,1-.43-2.37,6.19,6.19,0,0,1,.41-2.37,5.14,5.14,0,0,1,1.13-1.73,4.76,4.76,0,0,1,1.66-1.06,5.75,5.75,0,0,1,2-.36,5.66,5.66,0,0,1,2,.33,4.57,4.57,0,0,1,1.68,1,4.78,4.78,0,0,1,1.13,1.71A6.38,6.38,0,0,1,228.87,240.74Zm-8,.06a5,5,0,0,0,.2,1.39,3.15,3.15,0,0,0,.56,1.06,2.42,2.42,0,0,0,.87.69,3,3,0,0,0,2.36,0,2.39,2.39,0,0,0,.87-.7,3,3,0,0,0,.54-1.07,5.25,5.25,0,0,0,0-2.8,3.28,3.28,0,0,0-.55-1.07,2.49,2.49,0,0,0-.89-.68,2.78,2.78,0,0,0-1.17-.24,2.73,2.73,0,0,0-1.18.26,2.5,2.5,0,0,0-.87.71,3.22,3.22,0,0,0-.54,1.08A5,5,0,0,0,220.85,240.8Z"/><path class="cls-4" d="M230.8,235.48l2.37,0,.08,10.5-2.37,0Z"/><path class="cls-4" d="M242.72,245.89c-.69-1.2-1.43-2.38-2.23-3.54a33.53,33.53,0,0,0-2.54-3.3l.05,6.88h-2.33l-.08-10.5h1.93c.33.33.7.74,1.11,1.22s.82,1,1.25,1.54.84,1.12,1.26,1.7.81,1.16,1.18,1.7l0-6.2,2.35,0,.08,10.51Z"/><path class="cls-4" d="M254.84,235.3v2l-3.16,0,.06,8.48-2.36,0-.07-8.49-3.17,0v-2Z"/><path class="cls-4" d="M259.28,244a3.75,3.75,0,0,0,.83-.08,1.48,1.48,0,0,0,.52-.24.73.73,0,0,0,.27-.34,1,1,0,0,0,.07-.44,1,1,0,0,0-.49-.85,6.39,6.39,0,0,0-1.67-.72c-.34-.12-.69-.26-1-.41a3.68,3.68,0,0,1-.93-.59,2.76,2.76,0,0,1-.68-.86,2.7,2.7,0,0,1-.26-1.23,3,3,0,0,1,.26-1.31,2.69,2.69,0,0,1,.77-1,3.44,3.44,0,0,1,1.2-.64,5.35,5.35,0,0,1,1.61-.23,6.58,6.58,0,0,1,1.83.21,6.49,6.49,0,0,1,1.28.49l-.67,1.87a5.89,5.89,0,0,0-1-.39,4.14,4.14,0,0,0-1.3-.17,2.38,2.38,0,0,0-1.21.25.78.78,0,0,0-.37.72.83.83,0,0,0,.14.48,1.37,1.37,0,0,0,.39.36,3.48,3.48,0,0,0,.58.28l.72.26a14.89,14.89,0,0,1,1.43.59,3.8,3.8,0,0,1,1,.68,2.6,2.6,0,0,1,.61.92,3.72,3.72,0,0,1,.2,1.29,2.74,2.74,0,0,1-1,2.29,5,5,0,0,1-3.1.83,7.9,7.9,0,0,1-2.25-.27,6,6,0,0,1-.75-.25c-.2-.09-.38-.18-.52-.26l.65-1.88a5.72,5.72,0,0,0,2.85.64Z"/><rect class="cls-2" x="101.44" y="249.93" width="269.16" height="59.74"/><polygon class="cls-6" points="370.6 309.67 339.5 325.3 339.5 309.67 370.6 309.67"/><path class="cls-3" d="M85,241.69a8.79,8.79,0,1,1,8.79-8.79A8.8,8.8,0,0,1,85,241.69Zm0-13.58a4.79,4.79,0,1,0,4.79,4.79A4.8,4.8,0,0,0,85,228.11Z"/><path class="cls-4" d="M256.26,88.46a8.8,8.8,0,1,1,8.79-8.79A8.81,8.81,0,0,1,256.26,88.46Zm0-13.59a4.8,4.8,0,1,0,4.79,4.8A4.8,4.8,0,0,0,256.26,74.87Z"/><path class="cls-3" d="M206.48,116.76a8.79,8.79,0,1,1,8.79-8.79A8.8,8.8,0,0,1,206.48,116.76Zm0-13.58a4.79,4.79,0,1,0,4.79,4.79A4.8,4.8,0,0,0,206.48,103.18Z"/><path class="cls-3" d="M373.87,150a8.8,8.8,0,1,1,8.79-8.8A8.81,8.81,0,0,1,373.87,150Zm0-13.59a4.8,4.8,0,1,0,4.79,4.79A4.8,4.8,0,0,0,373.87,136.36Z"/><path class="cls-4" d="M373.87,228a8.8,8.8,0,1,1,8.79-8.79A8.81,8.81,0,0,1,373.87,228Zm0-13.59a4.8,4.8,0,1,0,4.79,4.8A4.8,4.8,0,0,0,373.87,214.44Z"/><rect class="cls-4" x="246.66" y="136.19" width="5.35" height="17.69" rx="2.11" ry="2.11" transform="translate(5.12 298.53) rotate(-62.34)"/><rect class="cls-4" x="240.48" y="142.36" width="17.69" height="5.35" rx="2.11" ry="2.11" transform="translate(5.12 298.53) rotate(-62.34)"/><rect class="cls-3" x="320.03" y="123.33" width="17.69" height="5.35" rx="2.11" ry="2.11" transform="translate(75.69 370.82) rotate(-65)"/><rect class="cls-3" x="326.2" y="117.15" width="5.35" height="17.69" rx="2.11" ry="2.11" transform="translate(75.69 370.82) rotate(-65)"/><rect class="cls-3" x="136.37" y="125.45" width="5.35" height="17.69" rx="2.11" ry="2.11" transform="translate(-53.29 153.69) rotate(-49.76)"/><rect class="cls-3" x="130.19" y="131.62" width="17.69" height="5.35" rx="2.11" ry="2.11" transform="translate(-53.29 153.69) rotate(-49.76)"/><rect class="cls-4" x="69.19" y="150.17" width="17.69" height="5.35" rx="2.11" ry="2.11" transform="translate(-92.54 134.08) rotate(-56.67)"/><rect class="cls-4" x="75.37" y="144" width="5.35" height="17.69" rx="2.11" ry="2.11" transform="translate(-92.54 134.08) rotate(-56.67)"/><path class="cls-7" d="M173.66,292.3q-5.79,0-8.82-3.22c-2-2.15-3-5.19-3-9.15a14.05,14.05,0,0,1,.93-5.26,11.27,11.27,0,0,1,2.54-3.9,10.64,10.64,0,0,1,3.83-2.42,14.07,14.07,0,0,1,4.83-.82,15.29,15.29,0,0,1,2.74.22,16.38,16.38,0,0,1,2.16.52,9.55,9.55,0,0,1,1.54.6,8.52,8.52,0,0,1,.89.48l-1.54,4.31a12.56,12.56,0,0,0-2.55-1,12.34,12.34,0,0,0-3.31-.41,7.4,7.4,0,0,0-2.41.41,5.31,5.31,0,0,0-2.09,1.32,6.54,6.54,0,0,0-1.46,2.35,10,10,0,0,0-.55,3.49,12.49,12.49,0,0,0,.36,3.07,6.49,6.49,0,0,0,1.17,2.45A5.65,5.65,0,0,0,171,287a7.44,7.44,0,0,0,3.15.6,14.72,14.72,0,0,0,2.09-.13,13.92,13.92,0,0,0,1.64-.33,8.18,8.18,0,0,0,1.27-.43l1-.44,1.48,4.28a12.35,12.35,0,0,1-3.19,1.23A18.37,18.37,0,0,1,173.66,292.3Z"/><path class="cls-7" d="M201.92,291.82c-.26-.82-.55-1.67-.85-2.54s-.61-1.74-.91-2.6h-9.27l-.9,2.61c-.31.87-.59,1.71-.85,2.53h-5.55c.9-2.56,1.74-4.92,2.55-7.09s1.58-4.21,2.35-6.13,1.52-3.74,2.27-5.47,1.52-3.41,2.32-5.05h5.07c.78,1.64,1.54,3.33,2.3,5.05s1.52,3.55,2.29,5.47,1.56,4,2.36,6.13,1.65,4.53,2.55,7.09Zm-6.42-18.36c-.12.34-.29.81-.52,1.41s-.5,1.27-.79,2.05-.62,1.64-1,2.57-.73,1.92-1.11,2.94h6.79c-.36-1-.71-2-1-2.95s-.67-1.79-1-2.57-.58-1.46-.81-2.06S195.64,273.8,195.5,273.46Z"/><path class="cls-7" d="M217.82,267.81q5.31,0,8.16,1.86t2.84,6.12q0,4.27-2.88,6.18t-8.22,1.9H216v7.95h-5.35v-23.4a29.76,29.76,0,0,1,3.71-.48C215.7,267.85,216.84,267.81,217.82,267.81Zm.34,4.55c-.39,0-.77,0-1.14,0l-1,.06v6.86h1.68a9,9,0,0,0,4.18-.76,2.9,2.9,0,0,0,1.4-2.81,3.35,3.35,0,0,0-.36-1.64,2.8,2.8,0,0,0-1-1.05,4.54,4.54,0,0,0-1.62-.54A12.65,12.65,0,0,0,218.16,272.36Z"/><path class="cls-7" d="M250.81,268.08v4.56h-7.16v19.18h-5.34V272.64h-7.16v-4.56Z"/><path class="cls-7" d="M267.36,291.82c-.27-.82-.55-1.67-.85-2.54s-.61-1.74-.91-2.6h-9.28l-.9,2.61c-.3.87-.58,1.71-.84,2.53H249c.9-2.56,1.74-4.92,2.54-7.09s1.59-4.21,2.36-6.13,1.52-3.74,2.27-5.47,1.51-3.41,2.32-5.05h5.06c.78,1.64,1.55,3.33,2.31,5.05s1.52,3.55,2.29,5.47,1.55,4,2.36,6.13,1.65,4.53,2.54,7.09Zm-6.42-18.36c-.12.34-.3.81-.53,1.41s-.49,1.27-.78,2.05-.62,1.64-1,2.57-.74,1.92-1.11,2.94h6.79c-.36-1-.72-2-1.06-2.95s-.66-1.79-1-2.57l-.8-2.06C261.27,274.26,261.08,273.8,260.94,273.46Z"/><path class="cls-7" d="M276.13,268.08h5.35v23.74h-5.35Z"/><path class="cls-7" d="M302.89,291.82q-2.29-4.08-5-8.05a81.1,81.1,0,0,0-5.69-7.5v15.55H287V268.08h4.35c.75.75,1.59,1.68,2.5,2.77s1.84,2.27,2.79,3.52,1.89,2.53,2.83,3.87,1.81,2.62,2.64,3.85v-14h5.31v23.74Z"/></g></g></svg>