<svg xmlns="http://www.w3.org/2000/svg" xmlns:xlink="http://www.w3.org/1999/xlink" viewBox="0 0 188.68 188.68"><defs><style>.cls-1{fill:none;}.cls-2{opacity:0.2;}.cls-3{fill:#0e449e;}.cls-4{fill:#f2f3f4;}.cls-5{fill:#32313c;}.cls-6{fill:#edb29f;}.cls-7{fill:#fff;}.cls-8{fill:#1c74df;}.cls-9{fill:#ab0738;}.cls-10{fill:#e6e7e8;}.cls-11{fill:#546187;}.cls-12{fill:#231f20;}.cls-13{fill:#282728;}.cls-14{fill:#a7a9ac;}.cls-15{fill:#d3cabe;}.cls-16{fill:#3d4760;}.cls-17{fill:#fff3e3;}.cls-18{clip-path:url(#clip-path);}.cls-19{fill:#f1f2f2;}</style><clipPath id="clip-path"><rect id="SVGID" class="cls-1" x="22.44" y="5.18" width="143.8" height="178.31"/></clipPath></defs><title>cricket</title><g id="Layer_2" data-name="Layer 2"><g id="Layer_1-2" data-name="Layer 1"><g class="cls-2"><circle class="cls-3" cx="94.34" cy="94.34" r="94.34"/></g><g class="cls-2"><circle class="cls-3" cx="94.34" cy="94.34" r="71.56"/></g><path class="cls-4" d="M94.37,155.53l4.41-.4,3.73,6.51-3.92,3.19L95,160.61l-.94-5Z"/><path class="cls-5" d="M84.22,98.61l11,2.64,15.94,3.41,11,10.72,11.86,14.5,3.81,8.13.38,2.66-5.75,7.42-11.5,5-18.85,10.08-4.81-8.4,5.75-3.14L120.35,139l-4-3.12L102.66,129l-5.5,1.33-6.83,3.47-1.69,4.55-4.87-6.68-9.26-.39-2.64-.48,6.35-14,4.2-15Z"/><path class="cls-6" d="M106.26,45.35l2.82-2.52h9.34l8.33,3.71.3,4.31L123.69,56l7.44-4.37,8.15-7.55,1.25-2.64,5.09,3.72L139,55.68,137.42,59l1.17,1.25,7.19.54,2.78-3.32,2.25-8.81,8.9.56-2.4,9.47-4.79,11.51-17,1.65-1.7,2.34-19-3.06-4.29-9.56-3.47-6.83Z"/><path class="cls-7" d="M90.33,101.84l-7,17.85,5.15-4.19,5-14.61Z"/><path class="cls-8" d="M118.64,70.06l.18-12.67-10.88-.9-8.17,2.43L94.4,65.66l-4.25,21-6.47,13.57a51.64,51.64,0,0,1,5.12,1.17c5.66,1.35,3.59,1.25,9,4s7.1,3.24,10.24,2.79a6.44,6.44,0,0,0,4.41-2.34l-.72-2,9.52-16L125.56,74l2.78-1,5.49,1.17,1.7-2.34s1.8-5.48,1.53-7.37a7.49,7.49,0,0,1,.63-3.77l-3.05,1.61L129,65.48l-8.62,1.61Z"/><path class="cls-9" d="M96.19,155.1A6.77,6.77,0,0,1,97.27,158c-.06,1.08-1.67,1.56-1,2.76a25,25,0,0,0,2.39,3.17L98.71,174l1.86,2.87-1.68,2.46-4.43-.12-4.92-12.33-2.16-10,1.87-1.56,4.07-.53Z"/><path class="cls-10" d="M137.87,138l-.33-3.33,4.07-.61,5.81,0,2.4,2.21-1.68,2.1-6.35,3.42-4.31,1.13Z"/><path class="cls-8" d="M102.19,170.51l-5.44.93-.8-4.36,4.08-2.92,4.55-3.48,12.82-4.32,6.47-4.31s6.24-3.35,7.8-4.43,7.55-4.31,7.55-4.31,10.3-6,11.14-5.16-2.51,3.11-2.51,3.11l-7.73,8.07-3.3,3.2a55.43,55.43,0,0,1-5.15,2.28c-.48,0-4.8-.36-4.8-.36l-17,10.9Z"/><path class="cls-8" d="M148.3,134.86c.31.31,1.3.81.31,1.89a28.94,28.94,0,0,1-6.69,4.13,69.84,69.84,0,0,0-6.75,3.28,30.82,30.82,0,0,0-3,2.79l.05.81,15.91-7.82L151,137.6l-1.75-2.43Z"/><path class="cls-10" d="M150.42,50.74l7.73,1.37,1.13-7.19,1.57-7.37.41-4.14-4.79-1.85L154,30.18l-3.54,3.18.12,5.09-.24,5.82.9,4.24Z"/><path class="cls-11" d="M158.39,50.59a9.16,9.16,0,0,1-3.44.66,20,20,0,0,1-4.17-1.42L151.94,46a9.43,9.43,0,0,0,3.51,1c2.06.16,3.2.15,3.2.15Z"/><path class="cls-12" d="M23.93,181.17a1.44,1.44,0,0,1,0-2.88l100.88-.39a1.33,1.33,0,0,1,1.43,1.44,1.44,1.44,0,0,1-1.42,1.44l-100.88.39Z"/><path class="cls-7" d="M139.87,150.12a.3.3,0,0,1-.27-.18,8.23,8.23,0,0,0-2.3-3.24.27.27,0,0,1,0-.4.28.28,0,0,1,.4,0,8.82,8.82,0,0,1,2.47,3.46.27.27,0,0,1-.17.37.12.12,0,0,1-.1,0Z"/><path class="cls-7" d="M131.87,154.83a.29.29,0,0,1-.27-.17,8.16,8.16,0,0,0-2.3-3.24.27.27,0,0,1,0-.4.28.28,0,0,1,.4,0,8.73,8.73,0,0,1,2.47,3.46.27.27,0,0,1-.17.37.18.18,0,0,1-.1,0Z"/><path class="cls-7" d="M107.73,167.47a.27.27,0,0,1-.27-.18,8.11,8.11,0,0,0-2.31-3.23.29.29,0,0,1,0-.41.31.31,0,0,1,.41,0,8.63,8.63,0,0,1,2.47,3.47.27.27,0,0,1-.16.37Z"/><path class="cls-12" d="M135.26,75.63l-.23,0c-1.93-.32-7.19-1.17-8.3-1.25a1.42,1.42,0,0,1-1.35-1.51,1.36,1.36,0,0,1,1.53-1.35c1.09.07,4.91.67,7.1,1l.09-.84a1.42,1.42,0,0,1,1.34-1.27,53.35,53.35,0,0,1,6.15-.08,67.54,67.54,0,0,0,9.34-1c1-.24,1-.24,2.13-2.52l.51-1c1.24-2.49,2.78-11.48,3.27-14.73a52.39,52.39,0,0,1,1.06-6.46c.36-1.3,1-3.16,1.58-4.7.38-1,.7-1.88.82-2.31a5.1,5.1,0,0,0-.07-1.86,1.44,1.44,0,0,1,0-.41,5.23,5.23,0,0,0,0-.56,1.61,1.61,0,0,1-1.05.11,1.5,1.5,0,0,1-1.08-1.07,1.41,1.41,0,0,1-1,.34,1.48,1.48,0,0,1-1.32-1.15,2.06,2.06,0,0,0-.22-.59s-.1.08-.13.09a1.43,1.43,0,0,1-1.75-.38l-.78-1a1.5,1.5,0,0,1-2-.59,1.41,1.41,0,0,1,.52-1.95,3,3,0,0,1,3.71.73l.18.21a2.67,2.67,0,0,1,1.86.42,1.79,1.79,0,0,1,.36.3h.05a2,2,0,0,1,1.82.31,3.4,3.4,0,0,1,.89.93,2.31,2.31,0,0,1,1.33.19c1.41.65,1.54,2.58,1.51,3.58a7.27,7.27,0,0,1,0,3.08c-.13.47-.47,1.43-.88,2.54-.53,1.47-1.18,3.25-1.53,4.48a50.09,50.09,0,0,0-1,6c-.19,1.31-1.89,12.31-3.56,15.66l-.51,1c-1.21,2.48-1.72,3.5-4,4-1.8.43-9,1.33-10.44,1.11a40.2,40.2,0,0,0-4.33,0l-.13,1.12a1.4,1.4,0,0,1-.56,1,1.47,1.47,0,0,1-.87.29Z"/><path class="cls-13" d="M100.17,153.47s2.92,6.51,3.33,7,4.22-.72,4.22-.72l-3.55-8.27Z"/><path class="cls-14" d="M101.69,154.43s1.79,4,2,4.28,2.6-.44,2.6-.44l-2.18-5.07Z"/><path class="cls-13" d="M110.31,146.36s5,8.15,5.56,8.67,4.32-1.94,4.32-1.94L114,142.72Z"/><path class="cls-14" d="M112.22,147.33s3.07,5,3.42,5.32,2.66-1.19,2.66-1.19l-3.8-6.37Z"/><path class="cls-12" d="M132,148.94a1.45,1.45,0,0,1-.79-2.66c5.75-3.7,5.45-6.1,5.22-8s-.84-3.64-6.87-12.29c-5.76-8.25-19.23-20.12-19.37-20.23a1.45,1.45,0,0,1-.11-2s4.46-5,8.46-14.34c.69-1.61,1.71-4.72,2.7-7.72a63.09,63.09,0,0,1,3-8.36,9,9,0,0,1,3.91-3.11l.47-.23a1.36,1.36,0,0,1,2,0,1.5,1.5,0,0,1-.07,2.09,3.73,3.73,0,0,1-1.1.69,6.62,6.62,0,0,0-2.73,2c-.49.84-1.76,4.69-2.78,7.78s-2,6.23-2.79,8a62.22,62.22,0,0,1-8,14c3.35,3,13.71,12.55,18.78,19.81,6.21,8.91,7,11.05,7.35,13.51s.77,6.18-6.5,10.87a1.35,1.35,0,0,1-.77.24Z"/><path class="cls-12" d="M98.13,173.2a4.23,4.23,0,0,1-2.12-.53,3.9,3.9,0,0,1-1.64-2.57,5.45,5.45,0,0,1,.37-3.82c.56-.85,3.28-2.66,5.59-4.11a8.84,8.84,0,0,1,5.71-3.74c3.51-.7,16.89-7.58,18.11-8.65a1.44,1.44,0,1,1,1.9,2.16c-1.82,1.6-15.69,8.56-19.44,9.31a5.83,5.83,0,0,0-4,2.62,1.55,1.55,0,0,1-.52.56,44.93,44.93,0,0,0-5,3.49,3.41,3.41,0,0,0,.4,2.28c.51.32,2.07,0,3-.6.19-.13,27.34-16.3,28.27-16.73a1.18,1.18,0,0,1,.69-.12c1.3.07,2.85.15,3.22.13a39.8,39.8,0,0,0,5.68-3.25,4.36,4.36,0,0,0,.31-.31,1.42,1.42,0,0,1,.79-1.28,19.43,19.43,0,0,0,2.67-3.54,14.74,14.74,0,0,1,5.25-4.68,8,8,0,0,0,2-1.4c.4-.46.49-.57-.65-1.6a13.07,13.07,0,0,0-5.17-1.33,41.76,41.76,0,0,0-5.87,1,1.42,1.42,0,0,1-1.73-1.06,1.45,1.45,0,0,1,1.06-1.74,45.63,45.63,0,0,1,6.54-1.11c1.64,0,5.63.77,7,2,.9.81,3.33,3,1.05,5.69a10.42,10.42,0,0,1-2.69,2,11.73,11.73,0,0,0-4.31,3.76,22.65,22.65,0,0,1-3.08,4,3.57,3.57,0,0,1-1.23,1.74c-.87.77-6.1,3.87-7.37,3.95-.6,0-2.32-.06-3.18-.11-2.94,1.69-26.61,15.71-27.62,16.37a7.92,7.92,0,0,1-4,1.19Z"/><path class="cls-12" d="M98.3,180.86a12.15,12.15,0,0,1-3.76-.6c-3.71-1.24-9.44-21.61-9.48-21.81a4,4,0,0,1,1.25-3.95,5.54,5.54,0,0,1,5.71-.68,6.46,6.46,0,0,0,4.37,0l.4-.11c1.39-.38,4.51-1.21,9.1-6.21,5.07-5.52,12.87-9.32,13.2-9.49a1.44,1.44,0,1,1,1.24,2.6c-.06,0-7.62,3.73-12.32,8.84-5.14,5.62-9,6.64-10.42,7l-.42.11a9.13,9.13,0,0,1-6.16,0,2.78,2.78,0,0,0-2.81.16,1.1,1.1,0,0,0-.34,1.14c.8,3.5,5.91,18.46,7.73,19.78a8.69,8.69,0,0,0,2.87.4,4.38,4.38,0,0,0,.29-2.08c-1.84-1.17-1.65-4.28-1.59-4.89a1.41,1.41,0,0,1,1.57-1.29A1.44,1.44,0,0,1,100,171.3a3.48,3.48,0,0,0,.45,2.35c2.17,1.45.81,5.16.34,6.26a1.45,1.45,0,0,1-1.07.85,10.58,10.58,0,0,1-1.44.1Z"/><path class="cls-8" d="M40.05,161s-6.83,4.93-7.13,6.19-.65,2.75.61,2.62,7.19-1,8.68,1,2.58,5,2.34,5.5,23.78-20.06,25.16-20.9,2.58-.42,3.48-1.5,6.35-5.57,6.53-6.11,5.57-5,6.83-6.2,3.33-2.34,2.34-4.31a16.76,16.76,0,0,0-5.12-5.58c-2-1.34-5-2.78-7.64-1.34s-7.1,4.4-7.55,4.58a3.75,3.75,0,0,0-2.88,1.26c-1.52,1.53-4.94,3.77-5.39,4.4a5.87,5.87,0,0,0-.54,2.25Z"/><path class="cls-9" d="M32.27,172l4.91-3.11,4.31,1.67,2.82,3.54v5l-10,1.08-4.92-.63.49-3.93,1.55-2.4Z"/><path class="cls-12" d="M44.3,177.76a1,1,0,0,1-.64-.3,1.45,1.45,0,0,1-.53-1.42,12.75,12.75,0,0,0-2.06-4.36c-.21-.27-1.31-1.09-6.91-.46l-.5.06a2.17,2.17,0,0,1-1.91-.69c-.86-1-.52-2.43-.23-3.69.11-.46.42-1.8,7.63-7l19.23-17.75a5.79,5.79,0,0,1,.75-2.4,13,13,0,0,1,2.39-2,36.18,36.18,0,0,0,3.16-2.57,4.65,4.65,0,0,1,3.42-1.62c.11,0,.77-.47,1.65-1,1.68-1.08,4-2.54,5.69-3.45s4.86-1.5,9.13,1.42a18.2,18.2,0,0,1,5.6,6.12c1.34,2.66-.84,4.49-2,5.47a6.83,6.83,0,0,0-.63.54c-.4.37-1.21,1.07-2.14,1.88-1.38,1.19-3.89,3.37-4.41,4-.26.5-.94,1.14-3.64,3.53-1.2,1.06-2.71,2.4-3.06,2.81a4.25,4.25,0,0,1-2.57,1.38,4.25,4.25,0,0,0-1.26.42c-.76.51-7.94,6.56-13.71,11.43-9.46,8-11.52,9.7-12.44,9.7Zm-6.56-9.66c2.42,0,4.55.43,5.62,1.83a18.6,18.6,0,0,1,2.08,3.86c2.13-1.77,6-5,9.44-7.94,8.26-6.95,13.33-11.21,14.08-11.67a6.33,6.33,0,0,1,2.14-.78c.62-.15.8-.2,1-.41a41.2,41.2,0,0,1,3.36-3.12c1.06-1,2.63-2.34,3-2.76.3-.57,1.16-1.39,5.06-4.76.9-.77,1.67-1.45,2.07-1.81.22-.21.47-.42.73-.63,1.47-1.24,1.52-1.52,1.29-2a15.33,15.33,0,0,0-4.64-5c-2.48-1.68-4.55-2.12-6.16-1.25s-3.87,2.29-5.52,3.33a18.44,18.44,0,0,1-2.17,1.31,2.81,2.81,0,0,1-.9.17c-.36,0-.74,0-1.5.77a33.3,33.3,0,0,1-3.46,2.83c-.68.52-1.61,1.22-1.81,1.44a6.54,6.54,0,0,0-.24,1.45,1.4,1.4,0,0,1-.46,1L41,162.09a1.42,1.42,0,0,1-.13.12c-2.87,2-6.21,4.76-6.64,5.5,0,.12-.07.37-.12.63a31.84,31.84,0,0,1,3.6-.24Zm-3.66.88h0Zm6-7.95h0Z"/><path class="cls-12" d="M44.22,181.05h0L29.43,181a1.5,1.5,0,0,1-1.06-.48,1.48,1.48,0,0,1-.37-1.1,28.7,28.7,0,0,1,1.07-5.6c.8-2.24,3.92-4.6,4.28-4.85a1.42,1.42,0,0,1,2,.3,1.44,1.44,0,0,1-.29,2c-1.15.84-2.93,2.49-3.29,3.5a19.15,19.15,0,0,0-.71,3.35l12.1.07a9.61,9.61,0,0,0,.34-1.64,18.28,18.28,0,0,0-1.87-4,1.44,1.44,0,0,1,2.48-1.45c1.09,1.86,2.36,4.35,2.26,5.65a16.87,16.87,0,0,1-.79,3.32,1.44,1.44,0,0,1-1.36,1Z"/><path class="cls-10" d="M139.31,43.55l5.42,2.39,4.07-4.08.72-4.13,2.52-6.4.66-2.84-4.38-1.06-3.8-1.86-2.67,2.22-2.7,3.9.66,4.85.94,2.83Z"/><path class="cls-11" d="M145.9,27.21a10.32,10.32,0,0,0-2.54,3.45c-1,3.5-2.91,3.29-2.91,3.29l-.9-.88,1.89-5.15,2.2-1.68,1.82-1Z"/><path class="cls-15" d="M126.28,28s-23.73-7.86-24-8l-12-7.24-2.39.23,6.83,7.5,14.79,5.8L138,34.62l1.32-1.14-1.68-2.4Z"/><path class="cls-11" d="M140.75,39.37a9.1,9.1,0,0,1,3.5.09A20.1,20.1,0,0,1,148,41.71l-1.94,3.5a9.42,9.42,0,0,0-3.23-1.66c-2-.58-3.1-.81-3.1-.81Z"/><path class="cls-7" d="M104.26,69.34s-3.6,4-2.34,13.39,6.38,13.58,6.38,13.58-4.94-8.54-4-15.2a99.9,99.9,0,0,1,2.07-11Z"/><path class="cls-7" d="M102.88,75.36s-3.6,4-2.34,13.4,6.38,13.57,6.38,13.57-4.94-8.54-4-15.19A97,97,0,0,1,105,76.08Z"/><path class="cls-12" d="M125.38,143.13a.86.86,0,0,1-.28,0,15.73,15.73,0,0,1-3.32-1.28,11.57,11.57,0,0,1-3.52-2.72,8.23,8.23,0,0,0-.8-.78,116.32,116.32,0,0,0-13.29-6.53c-2.78-1.12-3.51-.89-5-.41a17.51,17.51,0,0,1-2.84.68c-2.62.38-6.05,3.52-7.15,4.69a1.44,1.44,0,0,1-2.11-2c.49-.5,4.78-5,8.84-5.56a15,15,0,0,0,2.39-.58c2-.65,3.41-.92,6.91.49,4.38,1.77,12.77,5.93,14,7a8.79,8.79,0,0,1,1,1,9.47,9.47,0,0,0,2.71,2.12,15.39,15.39,0,0,0,2.64,1.06,1.44,1.44,0,0,1-.29,2.85Z"/><path class="cls-16" d="M118.78,29.17,122,26.89,136.16,31l-.72,2.58Z"/><path class="cls-9" d="M119.74,25.75l-2.16,2.94,3.36,1.13,1.92-2.63Z"/><path class="cls-12" d="M69.93,135.67a1.61,1.61,0,0,1-.67-.16,1.45,1.45,0,0,1-.62-1.94c0-.07,3.42-6.7,6-11.45A25,25,0,0,0,77.3,114a26.37,26.37,0,0,1,.75-3.37c2.23-7.31,4.68-12.89,7.26-16.58,3.35-4.82,5.6-19.79,5.62-19.94a19.55,19.55,0,0,1,19.59-19.38c5.7.82,11.94,1.59,12.89,1.49a11,11,0,0,0,1.1-1.26,15.5,15.5,0,0,1,3.22-3.11,104.4,104.4,0,0,0,10.41-9.18,15.45,15.45,0,0,0,1.12-3.44l-1.59-3.08a1.55,1.55,0,0,1-.15-.87c.15-1,.95-6.31,2.51-8.07a15.52,15.52,0,0,1,3.82-2.94A1.43,1.43,0,0,1,145,24.2a5,5,0,0,1,1.91,1.05,2.37,2.37,0,0,1,2.15.8c.16,0,.37,0,.51,0a3.24,3.24,0,0,1,1.95.32h.2a2.55,2.55,0,0,1,1.92.67,2.07,2.07,0,0,1,.54,1.54,19.28,19.28,0,0,1-1.35,4.25,29.25,29.25,0,0,0-1.3,3.83c-.33,2.14-1,5.26-2.71,7.4A70.17,70.17,0,0,0,144,50.24c-.07.12-8.07,13.28-9.42,14.18-.05,0-4.83,3.13-6.72,3.13-.78,0-4.91.59-7.34,1l-.66.18.42,2.68a1.41,1.41,0,0,1-.37,1.2,1.52,1.52,0,0,1-1.18.45c-.89-.08-8.8-.84-10.5-1.31a28.38,28.38,0,0,1-5-2.39,1.44,1.44,0,1,1,1.46-2.48,26.34,26.34,0,0,0,4.32,2.1c.9.26,4.92.71,8.15,1l-.34-2.11a1.45,1.45,0,0,1,1.06-1.62L120,65.7c1.24-.2,6.7-1,7.93-1A26.21,26.21,0,0,0,133,62c.85-.89,7.8-11.81,8.44-13.08a58.34,58.34,0,0,1,5.07-6.73c1.48-1.79,2-5,2.09-6a29.37,29.37,0,0,1,1.46-4.43c.31-.78.71-1.85,1-2.59a2.28,2.28,0,0,1-1-.3h0l-.37,0a3.26,3.26,0,0,1-2.72-.77c-1.47.13-2-.42-2.21-.88-.05,0-.1-.06-.16-.08a11.37,11.37,0,0,0-2.43,1.95c-.62.71-1.36,3.63-1.76,6.13l1.63,3.14a1.47,1.47,0,0,1,.14,1c-.21.88-.9,3.88-1.73,5a100.73,100.73,0,0,1-11.15,9.87,12.78,12.78,0,0,0-2.58,2.56c-.89,1.07-1.66,2-2.78,2.24-1.3.27-9.12-.79-13.66-1.45A16.7,16.7,0,0,0,93.8,74.34c-.11.86-2.38,16-6.13,21.38-2.41,3.44-4.72,8.75-6.88,15.77a27.56,27.56,0,0,0-.67,3.05,27.83,27.83,0,0,1-2.91,9c-2.6,4.72-6,11.31-6,11.38a1.46,1.46,0,0,1-1.28.79ZM147.44,26.2h0Z"/><path class="cls-17" d="M88.8,9.22l48.53,21.3,1.82,1.17s-7.21-1-8.47-1.8-24.08-6.38-28.31-8.81-13.84-8.54-13.84-8.54l-2-2.78Z"/><path class="cls-12" d="M144,62.49h-.37c-2.21-.13-7.45-.24-7.45-.24l.06-2.87s5.31.11,7.53.23a3,3,0,0,0,3-1.5c.57-1.59,3.32-10.8,3.38-12a3.78,3.78,0,0,0-.64-1.77c-.18-.33-.37-.69-.56-1.09a15.46,15.46,0,0,1-.95-4,1.44,1.44,0,0,1,1.28-1.58,1.48,1.48,0,0,1,1.58,1.28,13.46,13.46,0,0,0,.71,3.15c.16.34.32.64.48.93a6.27,6.27,0,0,1,1,3.14c0,1.72-3.29,12.22-3.56,13A5.72,5.72,0,0,1,144,62.49Z"/><path class="cls-12" d="M139,36.18l-.21,0a8.15,8.15,0,0,1-3.47-1c-1.8-.69-17.05-4.63-22.09-5.83-4.74-1.11-14.36-4.92-18-8.13-1.27-1.09-2.61-2.11-3.88-3.09a30.93,30.93,0,0,1-5.57-4.93,3.46,3.46,0,0,1-.82-3.27,4,4,0,0,1,2.5-2.32,1.49,1.49,0,0,1,1,.06l51.77,22.2a1.43,1.43,0,0,1,.75,1.89,1.45,1.45,0,0,1-1.89.75L87.83,10.52a.89.89,0,0,0-.22.21s0,.21.35.65a29.2,29.2,0,0,0,5,4.42c1.33,1,2.71,2.07,4,3.2,3.19,2.78,12.41,6.47,16.82,7.51.22,0,22.23,5.39,23.24,6.4.12,0,1.17.27,2.07.4a1.44,1.44,0,0,1-.2,2.87Z"/><path class="cls-11" d="M107.58,41.27l.66-3.6L113,34.62l5.58-.36,5.44,2.28,3.24,6.7-1.14,1.93-6.41-1.33Z"/><path class="cls-16" d="M107.16,45.76A4,4,0,0,1,111.42,44c3.11.48,10.18,1.38,11.14,2.64s3.72.36,3.72.36l-6.12-2.93L109.62,42l-4.14-.65.24,2.88Z"/><path class="cls-9" d="M154.9,40l-1.75-.85.85-2.79,11.24,3.2-1.67,4.26Z"/><g class="cls-18"><path class="cls-10" d="M124.57,46.7s-1.84,2.42-1.35,4.17a2.31,2.31,0,0,0,2.29,1.67l1.84-4Z"/><path class="cls-12" d="M163.57,45.21a1.47,1.47,0,0,1-.42-.06l-5.66-1.76a35,35,0,0,1-4.65-2.67,1.44,1.44,0,1,1,1.52-2.44c1.62,1,3.62,2.21,4,2.38L162.67,42l.71-2.06a1.44,1.44,0,1,1,2.72.94l-1.17,3.37a1.45,1.45,0,0,1-1.36,1Z"/></g><path class="cls-12" d="M108.53,57.31a1.62,1.62,0,0,1-1.13-.47c-.51-.51-.87-1.39-1.53-5.07a40.64,40.64,0,0,1-.16-5.54c-.74-1-2.14-3-1.8-4.27a2.27,2.27,0,0,1,.92-1.61,2.3,2.3,0,0,1,1.11-.41,9.26,9.26,0,0,1,2.92-4.73c1.62-1.22,4.83-3.19,8.35-2.62l1.06.16c2.46.36,5.51.81,7.37,3a12.15,12.15,0,0,1,2.6,7c.07,1.35.24,3.09.24,3.1a1.43,1.43,0,0,1-1.17,1.55l-1.91.36a1.44,1.44,0,0,1-1.71-1.37,3.66,3.66,0,0,0-.53-.32c-.84-.32-9.22-2.06-14.6-3.1a11.34,11.34,0,0,0-1.64-.24,17.3,17.3,0,0,0,1.3,2,1.52,1.52,0,0,1,.37,1,45.5,45.5,0,0,0,.11,5.46,17.23,17.23,0,0,0,.86,3.71,1.35,1.35,0,0,1-.07,2,1.31,1.31,0,0,1-1,.38Zm.37-17.13.21,0c.57.11,14.09,2.73,15.35,3.36a5.18,5.18,0,0,1,1,.62c0-.42,0-.84-.06-1.25a9.61,9.61,0,0,0-2-5.31c-1.14-1.38-3.39-1.71-5.57-2l-1.1-.17c-2.55-.41-5.14,1.3-6.15,2.06a6,6,0,0,0-1.7,2.68Z"/><path class="cls-12" d="M120.66,59.23a2.29,2.29,0,0,1-1.2-.32,1.94,1.94,0,0,1-.89-1.27A1.43,1.43,0,0,1,119.73,56a1.51,1.51,0,0,1,1.12.27,21.45,21.45,0,0,0,4.48-5.82,14.73,14.73,0,0,0,.28-4.29,1.44,1.44,0,0,1,1.36-1.5A1.39,1.39,0,0,1,128.49,46,18.43,18.43,0,0,1,128,51.4c-.48,1.37-4.36,7.07-6.32,7.66a3.83,3.83,0,0,1-1.06.17Z"/><path class="cls-11" d="M147.4,36.93a.48.48,0,0,1-.24-.06,8.66,8.66,0,0,0-1.74-.89,9.17,9.17,0,0,0-3.58-.59.4.4,0,0,1-.45-.41.44.44,0,0,1,.41-.45,10.29,10.29,0,0,1,3.92.64,9.41,9.41,0,0,1,1.9,1,.44.44,0,0,1,.14.6.41.41,0,0,1-.36.2Z"/><path class="cls-7" d="M68.44,151.68a.29.29,0,0,1-.29-.24A8.32,8.32,0,0,0,66,147.09,8,8,0,0,0,62.6,145a.29.29,0,0,1-.19-.36.28.28,0,0,1,.36-.19,8.62,8.62,0,0,1,3.63,2.23,8.89,8.89,0,0,1,2.33,4.64.3.3,0,0,1-.24.34Z"/><path class="cls-7" d="M47.47,170.61a.27.27,0,0,1-.28-.24A8.24,8.24,0,0,0,45,166,8.07,8.07,0,0,0,41.63,164a.29.29,0,0,1-.19-.36.3.3,0,0,1,.37-.19,8.69,8.69,0,0,1,3.61,2.23,8.84,8.84,0,0,1,2.33,4.65.29.29,0,0,1-.24.33Z"/><path class="cls-7" d="M77.25,144.58a.29.29,0,0,1-.29-.24A8.32,8.32,0,0,0,74.79,140a8,8,0,0,0-3.38-2.07.29.29,0,0,1-.19-.36.29.29,0,0,1,.36-.19,8.68,8.68,0,0,1,3.63,2.23,8.86,8.86,0,0,1,2.32,4.64.3.3,0,0,1-.23.34Z"/><path class="cls-7" d="M45.15,161.92a.29.29,0,0,1-.22-.09.31.31,0,0,1,0-.41L60.3,147.88a.29.29,0,0,1,.4,0,.32.32,0,0,1,0,.42L45.34,161.86a.35.35,0,0,1-.19.06Z"/><path class="cls-7" d="M64.81,143.33a.27.27,0,0,1-.22-.1.29.29,0,0,1,0-.41L70,138.44a.29.29,0,0,1,.41,0,.28.28,0,0,1,0,.4L65,143.26a.28.28,0,0,1-.19.07Z"/><path class="cls-7" d="M67.11,144.7a.28.28,0,0,1-.23-.11.29.29,0,0,1,.05-.41l5.38-4.38a.28.28,0,0,1,.4,0,.29.29,0,0,1,0,.4l-5.38,4.38a.24.24,0,0,1-.18.07Z"/><path class="cls-7" d="M68.92,146.76a.33.33,0,0,1-.23-.1.29.29,0,0,1,0-.41l5.38-4.39a.28.28,0,0,1,.4,0,.3.3,0,0,1,0,.41l-5.38,4.38a.29.29,0,0,1-.18.07Z"/><path class="cls-7" d="M70.31,150.17a.29.29,0,0,1-.23-.1.28.28,0,0,1,0-.4l5.38-4.38a.28.28,0,1,1,.37.43l-5.38,4.39a.35.35,0,0,1-.18.06Z"/><path class="cls-7" d="M47.57,163.81a.27.27,0,0,1-.21-.09.32.32,0,0,1,0-.42l15.35-13.53a.29.29,0,0,1,.4,0,.32.32,0,0,1,0,.42L47.76,163.74a.28.28,0,0,1-.19.07Z"/><path class="cls-7" d="M49.55,166.42a.31.31,0,0,1-.21-.09.3.3,0,0,1,0-.42L64.7,152.38a.29.29,0,0,1,.41,0,.3.3,0,0,1,0,.41L49.74,166.35a.3.3,0,0,1-.19.07Z"/><path class="cls-7" d="M107.71,164.3a.28.28,0,0,1-.26-.14.29.29,0,0,1,.11-.39l17.72-10.23a.29.29,0,0,1,.29.5l-17.73,10.23a.31.31,0,0,1-.13,0Z"/><path class="cls-12" d="M124.29,53.76a.29.29,0,0,1-.16,0c-.53-.35-1.09-.68-1.64-1a22,22,0,0,0-3.65-1.51,24.54,24.54,0,0,0-5.64-1,24.19,24.19,0,0,0-6.41.45.28.28,0,0,1-.34-.23.27.27,0,0,1,.22-.33,25.21,25.21,0,0,1,12.35.58,24.21,24.21,0,0,1,3.74,1.55c.57.31,1.13.64,1.69,1a.3.3,0,0,1,.07.41.27.27,0,0,1-.23.12Z"/><path class="cls-12" d="M124.61,56.46a.27.27,0,0,1-.15-.05c-.53-.35-1.09-.67-1.64-1a22.13,22.13,0,0,0-3.65-1.51,24.54,24.54,0,0,0-12.07-.57.29.29,0,0,1-.34-.23.27.27,0,0,1,.23-.33,25.19,25.19,0,0,1,12.35.58,21.62,21.62,0,0,1,3.75,1.55c.57.3,1.13.64,1.68,1a.28.28,0,0,1,.08.4.29.29,0,0,1-.24.13Z"/><path class="cls-12" d="M113.6,56.14a.28.28,0,0,1-.27-.17l-1.43-3.23a.51.51,0,0,1,0-.13l0-2.83a.32.32,0,0,1,.29-.28.29.29,0,0,1,.28.3l0,2.76,1.41,3.18a.29.29,0,0,1-.14.38.23.23,0,0,1-.12,0Z"/><path class="cls-12" d="M115.63,56.41h-.1a.28.28,0,0,1-.17-.37l1.21-3.23.34-2.51a.28.28,0,0,1,.32-.25.29.29,0,0,1,.25.33l-.36,2.56-1.22,3.3a.3.3,0,0,1-.27.18Z"/><path class="cls-19" d="M69.41,86.22a4.89,4.89,0,1,1-4.88-4.88,4.88,4.88,0,0,1,4.88,4.88Z"/><path class="cls-12" d="M64.53,92.55a6.33,6.33,0,1,1,6.32-6.33,6.32,6.32,0,0,1-6.32,6.33Zm0-9.77A3.45,3.45,0,1,0,68,86.22a3.45,3.45,0,0,0-3.45-3.44Z"/><rect class="cls-12" x="129.6" y="177.87" width="16.66" height="2.89" rx="1.23" ry="1.23"/></g></g></svg>