<svg xmlns="http://www.w3.org/2000/svg" viewBox="0 0 57.9 57.89"><defs><style>.cls-1{fill:#666;}</style></defs><title>football</title><g id="Layer_2" data-name="Layer 2"><g id="Layer_1-2" data-name="Layer 1"><path class="cls-1" d="M18.05,2.12A29.08,29.08,0,0,0,2.12,18.05a29,29,0,1,0,47.3-9.57A29,29,0,0,0,18.05,2.12Zm-10.82,39a20.19,20.19,0,0,1-3.81-3.07,27.32,27.32,0,0,1-.88-15.22,25.26,25.26,0,0,1,1.85-3.07c.21-.3.41-.62.64-.91l6.54,3.86v.17a50.18,50.18,0,0,0,1,10.44.08.08,0,0,0,0,0L7.56,41.32l-.33-.18ZM26.66,54.56A24.63,24.63,0,0,0,30.14,56a27.16,27.16,0,0,1-14.69-3.56l11,1.95a1.35,1.35,0,0,0,.26.15Zm0-2L13.69,50.28a39.72,39.72,0,0,1-4-5.85c-.3-.53-.63-1-.89-1.59l5.07-7.94.37.1a87.42,87.42,0,0,0,9.64,1.92l.48.06L30.4,47.47c-1.06,1.48-2.12,3-3.21,4.41-.18.25-.37.47-.57.71Zm21.5-4.47a27.41,27.41,0,0,1-3.26,2.78,25.07,25.07,0,0,0-1-4.45l6.47-12.08a29.38,29.38,0,0,0,5.1-2.87A2.45,2.45,0,0,0,56,31a27,27,0,0,1-7.85,17.11Zm-.29-15.66c.24.45.48.92.72,1.39L42.3,45.51l-.11,0a56.62,56.62,0,0,1-10.22,1L25.73,35.73c1-1.8,1.93-3.62,2.88-5.43.65-1.23,1.29-2.46,1.92-3.7l12.92-1.32a69.83,69.83,0,0,1,4.38,7.18ZM45.21,18.62c-.61,1.62-1.27,3.22-1.92,4.83L30.71,24.74a6.61,6.61,0,0,0-.47-.58l-4.47-5,0-.05L24,17.28,27.5,6.73a4.7,4.7,0,0,1,.73-.14c1.91-.2,3.81-.41,5.72-.53a29.68,29.68,0,0,1,3.53,0l8.67,9.77c-.3.94-.59,1.89-.94,2.81Zm2.91-8.84a27,27,0,0,1,5.55,8A28,28,0,0,0,48.5,15l-.87-.32L39.1,5.1a10.36,10.36,0,0,0,.1-1.25,26.93,26.93,0,0,1,8.92,5.93ZM20.27,3.34s.05.05.07.05a21.91,21.91,0,0,1,5.39,2.85l-3.27,9.85-.05,0c-.67.28-1.35.52-2,.82a57.29,57.29,0,0,0-7.86,4.25L6.09,17.35a1.86,1.86,0,0,1,.1-.58c.44-1.16.87-2.32,1.36-3.45a25.07,25.07,0,0,1,1.27-2.54c.31-.34.63-.68,1-1A26.77,26.77,0,0,1,20.33,3.25l-.06.09Z"/></g></g></svg>