<svg xmlns="http://www.w3.org/2000/svg" viewBox="0 0 9.095 18">
  <defs>
    <style>
      .cls-1 {
        fill: #385c8e;
      }
    </style>
  </defs>
  <path id="facebook" class="cls-1" d="M.292,9.487H2.263v8.121a.291.291,0,0,0,.292.292H5.9a.291.291,0,0,0,.292-.292V9.526H8.459a.289.289,0,0,0,.288-.257l.344-2.991A.29.29,0,0,0,8.8,5.955H6.192V4.082c0-.566.306-.85.9-.85H8.8a.291.291,0,0,0,.292-.292V.2A.291.291,0,0,0,8.8-.1H6.449c-.018,0-.053,0-.109,0A4.517,4.517,0,0,0,3.391,1.011a3.1,3.1,0,0,0-1.03,2.752V5.955H.292A.291.291,0,0,0,0,6.247V9.2A.29.29,0,0,0,.292,9.487Z" transform="translate(0 0.1)"/>
</svg>
