<svg xmlns="http://www.w3.org/2000/svg" xmlns:xlink="http://www.w3.org/1999/xlink" viewBox="0 0 188.68 188.68"><defs><style>.cls-1{fill:none;}.cls-2{opacity:0.2;}.cls-3{fill:#0e449e;}.cls-4{fill:#fff;}.cls-5{fill:#ab0738;}.cls-6{fill:#ebb181;}.cls-7{fill:#323233;}.cls-8{fill:#32313c;}.cls-9{fill:#1c74df;}.cls-10{fill:#231f20;}.cls-11{fill:#30384c;}.cls-12{clip-path:url(#clip-path);}.cls-13{fill:#e6e6e6;}</style><clipPath id="clip-path"><rect id="SVGID" class="cls-1" x="19.19" y="30.89" width="150.35" height="150.35"/></clipPath></defs><title>football</title><g id="Layer_2" data-name="Layer 2"><g id="Layer_1-2" data-name="Layer 1"><g class="cls-2"><circle class="cls-3" cx="94.34" cy="94.34" r="94.34"/></g><g class="cls-2"><circle class="cls-3" cx="94.34" cy="94.34" r="71.56"/></g><path class="cls-4" d="M100,143.55a32.5,32.5,0,0,1,6.37-3,9.27,9.27,0,0,1,3.94-.38l1.29,6.59,2,6.6-.23,10.53,1.67,7.65-5.69,1.06-1.86-.22-2.31-10.08-4.09-4.62-1.59-7.43Z"/><path class="cls-5" d="M100.22,150.12a7.8,7.8,0,0,1-.86,0l.2-2.42a16.06,16.06,0,0,0,5-.56c2.89-.79,6.44-2.08,6.47-2.09l.84,2.28c-.15,0-3.68,1.34-6.67,2.15a19.76,19.76,0,0,1-5,.67Z"/><path class="cls-6" d="M29.69,74.51s-1.31,3.7-.86,4.51,1.82,2.62,2.73,3,2,1,2.27.25-.09-1.61-.09-2.17.6-1.22,1.51-.46,1.57,1.32,1.77,1.06,1.46-3.48,1.46-3.48l3.39-1.32,12.07,0L66.37,73h4.75l2.73,1.9L76.48,84l-9.15,26.49-8.87,14-1.74,4-4.47-.68-6.14,11,8,5.32,10.69-3.71,4.17-7,2.57-.88L77,128.7l3.82-3.81,2.47-.21S87,130.22,87,130.44s1.57,5.21,1.57,5.21l5.76.61,4.27,3.2,1.36,5.68,5.76-1,5.08-2.8-1.9-7-1.11-7.63L105.75,122l-3.18-7.65-1.14-5.4,4.85-15.44,6.44-16.68,4.17-2.35,19,1.22L151.3,73l9.54-1.21.1-1.07a2.25,2.25,0,0,1,1.41-1.16c1.07-.32,1.16-.46,1.73-.11s.2,1.47.33,1.94.6.93,1.58.81,1.72-1.43,1.85-2.16a22.24,22.24,0,0,0-.07-3.17l-3-2.4-5.86.19L157,66.28l-2.53.31-5.7.2L139,66.63l-14.8-2.06L116,60,103.35,58.1l-2.92-1.21,4-12.16L105.3,38,102,35.64l-7.88-1.59-5.4,3.39-.36,7.17.3,8.16L86.43,58.9l-8.79,4.55-38.35,5Z"/><path class="cls-7" d="M87.56,127.53a18.22,18.22,0,0,0,2.35,3.41c1.59,1.85,5,5.34,5,5.34l-5.16-.12-2.31-3.56-1.06-4.24Z"/><path class="cls-5" d="M107.45,172.43s2.62-1.82,4.85-1.82a17,17,0,0,1,2.92.15l4.4,3.94,5.61.82.45,3.33-3,1-13-.6-3.29-.15-.4-4Z"/><path class="cls-8" d="M57.1,126.73s8.92,2.65,10.64,3.71,3.83,2.08,3.83,2.08l4.65-3.08,4.55-4.55,1.21-.21,4,4,.91,3.44s1.16-4.19,3.93-6.07a9.88,9.88,0,0,1,6.58-2c1.52.14,5.6,0,7.8,1.4s2.57,1.25,2.57,1.25l-.42-3.68-2.53-3.43-3.44-4.85-.4-3.39.4-2.42.15-2.94s-3.71,1.59-13.18-1.36-16.6-5.53-16.6-5.53L69,102.93l-2.13,8.79-2.42,3.22-3.87,6.33Z"/><path class="cls-4" d="M41.62,123.73l-3.24.6-2.82,4.2.6,4,5.2,1,4.75,5.31,3.79,2.57,1,.4a3.83,3.83,0,0,1-.41-3,22.06,22.06,0,0,1,2.58-5.61c.31-.36,2-2.12,2-2.12l-1.31-2.43L45,126.11Z"/><path class="cls-5" d="M47.46,139l-2.15-1.13c.07-.13,1.8-3.46,3.47-6.08a19.24,19.24,0,0,1,3.9-4.44l1.49,1.92a17,17,0,0,0-3.34,3.82c-1.6,2.53-3.35,5.87-3.37,5.91Z"/><path class="cls-5" d="M37.57,133.43a5.12,5.12,0,0,1-1-4.45c.65-2.63.65-3.43,1.46-3.63a35.5,35.5,0,0,1,4.15-.26l-2.18-2.77L34.8,124l-7.88,4.35-6,4.79-.05,4.45,3.54,2.73,5-3.09,5.92-3.07Z"/><path class="cls-9" d="M68.39,105.34s1.82,3.2,8.64,3.58,15.91-2.5,18.94-.83a13.32,13.32,0,0,0,5.46,1.74l1.74-9.77,6.37-15.24,4.12-8.58,1.68-.55a19.41,19.41,0,0,1,7.38-.92l3.78.26,13.43-.11,15.67-2,.8-.4s0,1.31-.41-1.52a9.8,9.8,0,0,1,.41-4.74l-5.76.19-13.53-.3c-.31,0-14.39-2.07-14.39-2.07l-12.5-5.71-6.36-.3-1.77,0a7.71,7.71,0,0,1-1.87,2.12,7.22,7.22,0,0,1-6.16,1.06,14.71,14.71,0,0,1-5.51-3.13,3.85,3.85,0,0,1-1.06-1.87l-4.25,2.48-5.25.2-3.74.5L69.9,62.6l-10,1.82L43,68.36l-6.26,2.52a4.55,4.55,0,0,1,2.82,2.33,8.68,8.68,0,0,1,.82,3.23l4.74-.71,10.13-1.44,8.64-.83L73,73.23l2.26,4v9.7l-2.23,8Z"/><path class="cls-10" d="M125.48,180.53a.48.48,0,0,1-.29,0l-18.71.18a1.23,1.23,0,0,1-.87-.38,4,4,0,0,1-.85-3.81,9.34,9.34,0,0,1,.95-2,3.06,3.06,0,0,0,.63-1.53,31.44,31.44,0,0,0-4-12c-3.41-5.74-3.61-8.48-3.7-13.62l0-1.44c0-3.86-.06-4.26-2.2-6.17L94,137.54c-1.51.17-4.52.29-5.76-1.29-.94-1.18-4.7-7.9-6.38-10.92-3,3-6.69,6.77-7.54,7.43a11.79,11.79,0,0,0-.91.79,1.46,1.46,0,0,1-1,.52,18.82,18.82,0,0,1-2.78-.13c-1.12,1.84-4.13,6.68-5.75,8.15-2.07,1.91-3.34,2.35-4.21,2.53-.09,0-.21.08-.37.14a7.49,7.49,0,0,1-7.43-.47c-.08-.06-8.57-5.9-10.11-8.1-1-1.5-1.17-1.64-2.12-1.72a16.77,16.77,0,0,0-7.63,2.19,45.32,45.32,0,0,1-6,3.52c-1.1.41-3.48.84-4.64-.47a1.38,1.38,0,0,0-.27-.22c-.93-.65-1.45-1.43-1.38-3.48.11-2.95,2.7-6,4.06-6.84a5,5,0,0,0,.81-.65,11.15,11.15,0,0,1,4.61-2.67A28.72,28.72,0,0,0,35.93,122a5,5,0,0,1,5.21.09,11.24,11.24,0,0,1,2.64,2.19,6.85,6.85,0,0,0,1.07,1,18.28,18.28,0,0,0,3.45.73c2.42.38,4.92.78,6.16,1.71l1.82,1.36A1.21,1.21,0,1,1,54.83,131L53,129.65c-.76-.57-3.26-1-5.09-1.25-2.35-.38-3.73-.61-4.49-1.16A8.66,8.66,0,0,1,42,125.93a9.79,9.79,0,0,0-2.14-1.78,2.56,2.56,0,0,0-2.57-.16,30.36,30.36,0,0,1-7.51,4.18,8.75,8.75,0,0,0-3.71,2.15,8,8,0,0,1-1.18.94c-.82.49-2.82,2.89-2.88,4.84,0,1.14.09,1.23.34,1.4a3.5,3.5,0,0,1,.7.61,3.53,3.53,0,0,0,2-.2,41.82,41.82,0,0,0,5.55-3.27,18.81,18.81,0,0,1,9.2-2.59c2.08.19,2.76,1.15,3.86,2.72.82,1.19,5.58,4.81,9.52,7.53a5.11,5.11,0,0,0,5.16.2,6.92,6.92,0,0,1,.78-.26c.34-.07,1.22-.24,3.06-1.93,1.38-1.26,4.57-6.39,5.69-8.27a1.28,1.28,0,0,1,1.15-.58c1,.09,2.3.19,2.83.21a10.1,10.1,0,0,1,1-.82c1-.74,7.17-7.07,11.11-11.13a1.22,1.22,0,1,1,1.76,1.68l-2,2.17c2.36,4.26,5.76,10.25,6.49,11.18.34.43,2.31.58,4.06.31a1.26,1.26,0,0,1,1,.29L98,137.88c3,2.62,3,4,3,7.94l0,1.43c.1,5,.26,7.19,3.37,12.44a33.57,33.57,0,0,1,4.35,13.05,5,5,0,0,1-.94,2.94,6.07,6.07,0,0,0-.71,1.48,1.6,1.6,0,0,0,0,1.08l17.26.14a2.79,2.79,0,0,0-1.28-1.89,6.1,6.1,0,0,0-.85-.08,9.85,9.85,0,0,1-3.09-.58,12.72,12.72,0,0,1-5.89-5.33c-.56-1.21-.92-5.49-1.46-14.05-.16-2.43-.29-4.52-.39-5.17a13,13,0,0,0-.64-2.35,23.36,23.36,0,0,1-1.27-5.14,47.22,47.22,0,0,0-1.8-7.28c-.28-.92-.51-1.66-.62-2.13a3.86,3.86,0,0,1,0-1.6c.09-.61.25-1.64-.31-5.12a17.35,17.35,0,0,0-3.74-8.59c-.34-.48-.68-.94-1-1.43-1.77-2.62-2.3-6.24-1.61-11.06.54-3.79,7.2-21,10.11-27.48,2.73-6.09,5.84-5.9,7.51-5.78a2.53,2.53,0,0,0,.61,0c1.22-.26,5.26,0,10.83.42l2.33.16a85.59,85.59,0,0,0,12-.24c.77-.1,2.78-.59,4.54-1s3.43-.85,4.27-1a14.2,14.2,0,0,1,1.72-.18,17.27,17.27,0,0,0,2.87-.37,7.6,7.6,0,0,0,3.48-1.75,1.21,1.21,0,1,1,1.71,1.72,9.93,9.93,0,0,1-4.71,2.4,20.18,20.18,0,0,1-3.21.42c-.44,0-.88.06-1.49.15s-2.43.53-4.06.94c-2,.5-3.9,1-4.82,1.09a85.85,85.85,0,0,1-12.51.25l-2.34-.17c-3.43-.25-9.15-.67-10.12-.46a4.37,4.37,0,0,1-1.3,0c-1.37-.09-3.09-.2-5.13,4.35-3.12,7-9.47,23.61-9.94,26.83-.59,4.21-.2,7.26,1.22,9.35.32.47.65.92,1,1.37a19.75,19.75,0,0,1,4.18,9.63c.61,3.86.42,5.09.3,5.89a1.6,1.6,0,0,0,0,.72c.09.41.29,1.08.55,1.91a47.91,47.91,0,0,1,1.89,7.68,22.29,22.29,0,0,0,1.16,4.68,14.35,14.35,0,0,1,.76,2.79c.1.74.24,2.78.4,5.35.27,4.24.78,12.12,1.25,13.21a10.38,10.38,0,0,0,4.56,4.07,7.5,7.5,0,0,0,2.36.42,4.67,4.67,0,0,1,1.78.33,5.22,5.22,0,0,1,2.65,4.19c0,1.2,0,2-1.12,2.14,0,0-.11-.1-.15-.1Z"/><path class="cls-10" d="M53.76,134.08a1.3,1.3,0,0,1-.67-.2,1.21,1.21,0,0,1-.33-1.69,53.74,53.74,0,0,0,3.9-6.92,43.6,43.6,0,0,1,6.91-11.16c2-2.12,2.75-5.4,3.26-7.58.15-.59.27-1.12.4-1.54a25.87,25.87,0,0,1,2.43-5.38l.6-1.11A41.87,41.87,0,0,0,74,89.24c.61-2.58-.89-12.77-1.3-13.88A11,11,0,0,0,72,73.87,1.22,1.22,0,0,1,74,72.58,15.57,15.57,0,0,1,75,74.42c.6,1.39,2.16,12.3,1.43,15.38a44.91,44.91,0,0,1-4,9.84l-.6,1.12a23,23,0,0,0-2.24,4.92c-.12.39-.23.87-.37,1.42-.57,2.42-1.45,6.08-3.85,8.66a40.82,40.82,0,0,0-6.44,10.46,56.69,56.69,0,0,1-4.12,7.32,1.24,1.24,0,0,1-1,.54Z"/><path class="cls-10" d="M37,79.52a1.21,1.21,0,0,1-.3-2.39s.3-.27.49-.44a4.32,4.32,0,0,1,2.36-1.33l.69-.1a40.5,40.5,0,0,1,7.81-.36A8.77,8.77,0,0,0,53,73.79a5.16,5.16,0,0,1,2.27-.71,19.49,19.49,0,0,0,2.3-.25,60.5,60.5,0,0,1,6.3-.59c4.88-.17,9.56-.75,10.33-1.13,1.69-.84,4.33-.36,4.62-.31a1.21,1.21,0,0,1-.47,2.38,6,6,0,0,0-3.06.1c-1.57.78-7.78,1.26-11.33,1.39a54.81,54.81,0,0,0-6.06.57,20.57,20.57,0,0,1-2.63.26A3.65,3.65,0,0,0,54.1,76,11,11,0,0,1,48,77.32a38.73,38.73,0,0,0-7.36.35l-.82.1a5.54,5.54,0,0,0-1,.74,3.84,3.84,0,0,1-1.5,1,1,1,0,0,1-.29,0Z"/><path class="cls-11" d="M89.46,48.65s1.16-6,3-6.82,1.47-1.62,4.85-.75,4,1.71,5,1.21a12.37,12.37,0,0,1,2.33-.82l-1.92-5.65-6.47-2.17-3.64.76-3.58,3.53-.86,1.87-.5,4.85Z"/><path class="cls-10" d="M30.11,81.83a1.2,1.2,0,0,1-.94-.44,6.5,6.5,0,0,1-1-1.75A10.11,10.11,0,0,1,28,76.3c.2-.92,2.22-3.19,3.16-4a37.51,37.51,0,0,1,6.16-3.16c1.16-.53,2.27-1,3.06-1.43a35.31,35.31,0,0,1,12.49-3.24,56.49,56.49,0,0,0,12.65-2.07,53.84,53.84,0,0,0,6.36-2.64,30.89,30.89,0,0,1,5-2,11.37,11.37,0,0,1,3.1-.16c.5,0,1.07,0,1.8,0a11.23,11.23,0,0,0,4.05-1.3l1.65-2a4.52,4.52,0,0,0,.6-2.26,19.55,19.55,0,0,0-.58-3c-.52-2.22-1.17-5-.94-7.1a1.22,1.22,0,0,1,2.42.27c-.2,1.68.41,4.23.89,6.28A18.5,18.5,0,0,1,90.58,52a6.66,6.66,0,0,1-1.1,3.73l-1.86,2.29a1.23,1.23,0,0,1-.35.29,14,14,0,0,1-5.36,1.72c-.81,0-1.42,0-2,0a9,9,0,0,0-2.51.11A34.57,34.57,0,0,0,72.94,62a56.43,56.43,0,0,1-6.71,2.76A59.36,59.36,0,0,1,53,66.94a32.92,32.92,0,0,0-11.46,3c-.81.4-1.94.92-3.13,1.47a48.67,48.67,0,0,0-5.62,2.8A15.09,15.09,0,0,0,30.36,77a12,12,0,0,0,.09,1.93,3.73,3.73,0,0,0,.6.95,1.22,1.22,0,0,1-.94,2Z"/><g class="cls-12"><path class="cls-10" d="M96.7,60.54A5.39,5.39,0,0,1,93,59.19a6.94,6.94,0,0,1-1.65-2.13A1.22,1.22,0,0,1,93.53,56a4.54,4.54,0,0,0,1,1.3,3.17,3.17,0,0,0,2.68.8c1.54-.12,1.86-.82,2-1.07.6-1.38,4.42-13.26,4.33-14.8a1.25,1.25,0,0,1,1.09-1.31,1.17,1.17,0,0,1,1.31,1c.35,2.26-4.49,16-4.54,16.15a4.41,4.41,0,0,1-4,2.47c-.24,0-.47,0-.69,0Z"/><path class="cls-10" d="M167.82,71.44h-.14a1.22,1.22,0,0,1-1.07-1.35c.49-4.26-.9-4.42-2.24-4.58l-.25,0a7.59,7.59,0,0,0-4.19.76l-.5.27c-1.4.75-2.83,1.53-4.43.93-.54-.2-.78-.11-1.48.15l-.66.25a3.57,3.57,0,0,0-.52.2c-.86.39-1.48.54-3.76.42-1.24-.06-3-.33-4.86-.6a58.38,58.38,0,0,0-7.66-.84,26.08,26.08,0,0,1-8.39-1,16.93,16.93,0,0,0-4.08-.69l-1-.1c-1.6-.17-3.66-1.34-8-4a10.33,10.33,0,0,0-6.94-1.75c-.45,0-.93,0-1.45,0a25.21,25.21,0,0,1-6.3-.88,1.23,1.23,0,0,1-.8-1.52,1.22,1.22,0,0,1,1.52-.8,22.46,22.46,0,0,0,5.58.77c.49,0,1,0,1.39,0a12.72,12.72,0,0,1,8.25,2.11c3.48,2.1,5.86,3.48,7,3.62l.93.08a19.56,19.56,0,0,1,4.6.8,24.36,24.36,0,0,0,7.67.85,60.07,60.07,0,0,1,8,.85c1.8.27,3.5.53,4.63.59,1.93.1,2.22,0,2.64-.22a5.86,5.86,0,0,1,.74-.28l.57-.21a3.94,3.94,0,0,1,3.19-.16c.53.2,1.27-.17,2.43-.8l.53-.27a9.94,9.94,0,0,1,5.63-1c2.6.32,5.25,1.4,4.58,7.3a1.21,1.21,0,0,1-1.2,1.08Z"/></g><path class="cls-10" d="M104.72,43.29a1.2,1.2,0,0,1-1.21-1.21,7.23,7.23,0,0,0-14.45,0,1.22,1.22,0,0,1-2.43,0,9.65,9.65,0,0,1,19.3,0,1.21,1.21,0,0,1-1.21,1.21Z"/><path class="cls-13" d="M95.61,167.41a11.07,11.07,0,1,1-11.06-11.06,11.07,11.07,0,0,1,11.06,11.06Z"/><path class="cls-9" d="M86.25,156.49l-.13,1.63-3.05,1.74,3.25,1.36.74,3.45L89.34,162l3.51.38-1.84-3,.31-.7a11,11,0,0,0-5.07-2.19ZM81.08,159l-3.42.79-.61-.54a11,11,0,0,0-2.92,4.45l.84.35.72,3.44L78,164.86l3.38.37.92,3.07-2,2.52,3.21.05,1.75,2.67,1.06-3,3.07-.87-2.54-1.94.15-3.21-2.62,1.86-3-1.11.12,0-1.84-3Zm12.69,7L92.52,169l-3.14.67,2.42,2.08-.35,3.18,2.34-1.42a11.16,11.16,0,0,0,1.73-4.67l-.16,0Zm-19.56,3.34L74.08,171A11,11,0,0,0,79,177l1.65.19-1.83-3,1.43-3.22-3.42.81Zm11.07,4.12L85,177l-2.29,1.31a10.62,10.62,0,0,0,7.88-1.63l.72-1.62-3.42.8Z"/><path class="cls-10" d="M84.55,179.69a12.28,12.28,0,1,1,12.27-12.28,12.3,12.3,0,0,1-12.27,12.28Zm0-22.13a9.85,9.85,0,1,0,9.85,9.85,9.86,9.86,0,0,0-9.85-9.85Z"/><path class="cls-4" d="M91.71,75.51a27.11,27.11,0,0,1-5.66-.77c-.94-.19-1.89-.39-2.88-.54a1.21,1.21,0,1,1,.36-2.39c1,.15,2,.36,3,.56,2.77.59,5.18,1.09,8.07.36a20.37,20.37,0,0,1,8.93,0,1.21,1.21,0,0,1-.6,2.35,18.16,18.16,0,0,0-7.74,0,13.62,13.62,0,0,1-3.5.43Z"/><path class="cls-4" d="M93.65,83.82l-.2,0a51.41,51.41,0,0,1-5.4-1.35,33.32,33.32,0,0,1-8.73-4.38,1.22,1.22,0,0,1,1.58-1.85,30.73,30.73,0,0,0,7.84,3.9,46,46,0,0,0,5.11,1.28,1.22,1.22,0,0,1-.2,2.42Z"/><path class="cls-4" d="M82.64,97.55l-.28,0a1.24,1.24,0,0,1-.91-1.46,15.51,15.51,0,0,0,.34-5.32,14,14,0,0,0-2.35-5.81,1.22,1.22,0,0,1,.26-1.7,1.21,1.21,0,0,1,1.69.25,16.66,16.66,0,0,1,2.78,6.77,18.2,18.2,0,0,1-.35,6.36,1.22,1.22,0,0,1-1.18.93Z"/><rect class="cls-10" x="19.6" y="178.06" width="115.87" height="2.89" rx="1.44" ry="1.44"/><rect class="cls-10" x="142.2" y="178.06" width="16.54" height="2.89" rx="1.44" ry="1.44"/></g></g></svg>