<svg id="Layer_1" data-name="Layer 1" xmlns="http://www.w3.org/2000/svg" viewBox="0 0 100 100"><defs><style>.cls-1{fill:#414141;}.cls-2{fill:none;}</style></defs><title>icons</title><path class="cls-1" d="M8.51,71.71a2.63,2.63,0,0,1-2.4-1.56,47.62,47.62,0,0,1-4.17-19.6A48.07,48.07,0,0,1,80.51,13.41a2.63,2.63,0,0,1-3.34,4.07,42.8,42.8,0,0,0-70,33.07A42.46,42.46,0,0,0,10.91,68a2.63,2.63,0,0,1-1.32,3.48A2.76,2.76,0,0,1,8.51,71.71Z"/><path class="cls-1" d="M50,98.61A48,48,0,0,1,18.13,86.52a2.63,2.63,0,0,1,3.49-3.93A42.81,42.81,0,0,0,87.94,30.73a2.63,2.63,0,0,1,4.67-2.44A48.08,48.08,0,0,1,50,98.61Z"/><path class="cls-1" d="M66.91,20a2.63,2.63,0,0,1-.41-5.23L76,13.23,75,3.69a2.63,2.63,0,1,1,5.24-.52l1.17,12A2.63,2.63,0,0,1,79.25,18l-11.92,1.9A3,3,0,0,1,66.91,20Z"/><path class="cls-1" d="M21.07,99.2a2.63,2.63,0,0,1-2.62-2.37l-1.19-12A2.63,2.63,0,0,1,19.46,82l11.91-1.91a2.63,2.63,0,1,1,.84,5.19l-9.47,1.53,1,9.54a2.64,2.64,0,0,1-2.36,2.88Z"/><path class="cls-1" d="M64.16,46.19H35.84a2.63,2.63,0,0,1,0-5.26H64.16a2.63,2.63,0,1,1,0,5.26Z"/><path class="cls-1" d="M64.16,36.06H35.84a2.63,2.63,0,0,1,0-5.26H64.16a2.63,2.63,0,1,1,0,5.26Z"/><path class="cls-1" d="M53.94,78.29a2.64,2.64,0,0,1-2-.9L33.87,56.82a2.63,2.63,0,0,1,2-4.37c11.43,0,15.1-2.16,15.1-8.89s-4.6-7.5-15.1-7.5a2.63,2.63,0,0,1,0-5.26c8.59,0,20.36,0,20.36,12.76,0,10.78-8,13.35-14.71,14l14.42,16.4a2.63,2.63,0,0,1-2,4.37Z"/><rect class="cls-2" width="100" height="100"/></svg>