<?xml version="1.0" encoding="utf-8"?>
<!-- Generator: Adobe Illustrator 22.0.0, SVG Export Plug-In . SVG Version: 6.00 Build 0)  -->
<svg version="1.1" id="Layer_1" xmlns="http://www.w3.org/2000/svg" xmlns:xlink="http://www.w3.org/1999/xlink" x="0px" y="0px"
	 viewBox="0 0 188.6 188.7" style="enable-background:new 0 0 188.6 188.7;" xml:space="preserve">
<style type="text/css">
	.st0{opacity:0.2;}
	.st1{fill:#0E449E;}
	.st2{clip-path:url(#SVGID_2_);}
	.st3{fill:#EBB181;}
	.st4{fill:#32313C;}
	.st5{fill:#FFFFFF;}
	.st6{fill:#AB0738;}
	.st7{fill:#1C74DF;}
	.st8{fill:#30384C;}
	.st9{fill:#231F20;}
</style>
<title>kabaddi</title>
<g id="Layer_2_1_">
	<g id="Layer_1-2">
		<g class="st0">
			<circle class="st1" cx="94.3" cy="94.3" r="94.3"/>
		</g>
		<g class="st0">
			<circle class="st1" cx="94.3" cy="94.3" r="71.6"/>
		</g>
		<g>
			<defs>
				<circle id="SVGID_1_" cx="94.3" cy="94.3" r="94.3"/>
			</defs>
			<clipPath id="SVGID_2_">
				<use xlink:href="#SVGID_1_"  style="overflow:visible;"/>
			</clipPath>
			<g class="st2">
				<polygon class="st3" points="117.2,83.2 111.1,89.1 112.4,91.5 114.4,94.6 115.3,96.7 117.5,97.5 121.1,96 124.3,94.7 
					129.4,91.8 133,89.3 134.9,87.6 136.3,85.4 131.8,81.7 124.2,78.4 118.1,79 				"/>
				<path class="st3" d="M-0.1,80.6l6.5,1.6l7.5,3.3l2.4,2l10-8.8l7.7-5.8l5.4-3.9l2.2-1l2.8-4.5l24.1,1.6l2.6,17l6,12.9l2.7,15.2
					v8.3l-2.3,3.6l-4.6,4.2l-6.2,8.2l-5.5,8.2l-8,14.1l-8.3-4.3l5.5-13.7l8.8-15l3.3-4.2l-3.4-5.1l-3.9-8.9c0,0-4.5-13.6-5.2-18.3
					c-2.9,2.2-22.1,16-35.8,13.8c-5-2.7-10.1-5-15.5-6.7"/>
				<path class="st4" d="M36.2,71.5c4,0.9,13.8,12.5,14,15.8c3.2-4,21.7-4.8,22.9-2.3c-0.3-4.3-1.7-20.3-1.7-20.3l-4.8-7.6l-2.9-0.7
					l-4.3,1.7l-6,0.8l-6.7,2.7l-2.1,1.9l-3.1,4L39.5,69L36.2,71.5z"/>
				<path class="st5" d="M42.9,155.8l11.4,3.8l-1-1.9l0-0.8l2.5-5.1c0,0-6.4-0.6-8.8-3.6l-1.1,2l-0.2,1.2l-0.8,1.2l-0.7,1.2
					L42.9,155.8z"/>
				<path class="st6" d="M44.3,153.8l-2.5,3.4l-0.9,5l4.2,3.1l5.5,3.3l6.5,3h4.4l2.1-0.5v-1.7l-2.2-2.3l-4.8-4.4l-3.3-4.2l-0.1-1.6
					C53.3,156.9,47.1,156.6,44.3,153.8z"/>
				<path class="st6" d="M55.5,153.1c0,0-7.4-1.6-9.4-3.9c-0.3,0.4-0.5,0.8-0.7,1.2c0,0,6.8,3.7,9.8,3.4L55.5,153.1z"/>
				<polygon class="st3" points="90.9,90.7 94.5,85.8 103.4,87.9 111.7,99.8 113.4,108.8 114.3,114.7 116,117 119.1,121.3 
					123.6,130.3 128,138.9 129.9,141.2 136.2,144.6 139.3,148.7 140.4,151.9 140.4,154.9 139.3,158 137.7,158.7 133.7,154.7 
					130.9,156.4 129.3,154.4 128.5,151.6 125.4,148.4 124.4,144 119.2,137.9 114.1,130.8 106.2,119 103.2,109.8 102.3,106.6 
					100,104.9 98.4,100.8 97.8,106.6 97.9,111 99.6,111.9 101.5,113.8 103.7,117.2 104.8,122.6 104.3,126.3 103,127.1 101.6,126.1 
					101,124.5 100.5,121.4 100.4,120.3 99.6,121.1 97.5,119.1 95.2,116.4 93.9,115 93.8,109.6 93.7,105.5 93.1,95.8 92.9,92.3 				
					"/>
				<path class="st7" d="M116.8,75.2l-3.1,1.4l2.9,7.3l-4.4,4.2c-0.7,0.6-0.8,1.7-0.4,2.5l0.2,0.4l0.4,13.9l-10.1,1.8l-2.4-1.7
					l-1.5-4.1c0.2-2.2-0.2-4.3-1.3-6.2c-1.8-2.8-4.2-2.3-4.2-2.3l-4.7-3.6l-11.6-4.4c-1.8-0.6-3.6-1.3-5.3-2.2c-1.3-4-4-5.7-6.7-7.9
					c-2.7-2.2-4.2-5.5-4-8.9c0.1-2.6,0.6-5.7,2.2-7.8l2.9-1l5.6-0.5l6.5,0.3l8.9,1.3l4.8,1.1l6.7,2l4.6,1.8l4.2,2.2l3,1.9l3.2,2.6
					l3.2,4.1L116.8,75.2z"/>
				<path class="st8" d="M117.3,74.8c-1.8,0.3-3.3,0.6-3.6,1.8c-0.3,2.8,0.8,5.5,2.9,7.3c0,0,6.6-3.6,5.2,3.6
					c-0.1,0.7,0.3,1.3,1,1.5c0.1,0,0.2,0,0.3,0c3.7-0.1,6.8,1.3,6.2-2.9c1.8,0.4,3.5,1.1,5.2,2l1.9-2.6l0.4-4l-1.3-3.2l-2.4-3
					l-3.1-1.5l-4.2-1h-4.1l-2.6,1.2L117.3,74.8z"/>
				<path class="st9" d="M-0.1,79.5c7.1,1.5,13.5,4,16.3,6.6c7.5-7.2,15.7-13.4,24.6-18.7c3.9-8.6,11.1-9.4,16.9-10
					c2-0.1,3.9-0.5,5.8-1.2c6-2.8,28.1-0.1,40.7,6.1c9.8,4.8,12.6,9.4,13.4,11.6l0.7-0.3c6-3.4,13.7-1.8,17.8,3.9
					c2.8,4,2.3,8.6-1.3,11.7c-5,4.4-10.9,7.4-17.3,9h-0.1c-2.9,0.2-3.3-1.7-3.7-3.2c-0.1-0.7-0.3-1.4-0.6-2
					c-0.9,6.6,0.5,11.7,1.5,15.6c0.7,2.7,1.3,4.9,0.8,6.7c3.3,1.7,6.1,7.8,9,14.2c2.1,4.6,4.3,9.3,6.2,10.9
					c5.9,2.5,9.4,5.8,10.7,10.2v0.2c0.5,4,0.1,6.8-1.3,8.1c-0.6,0.6-1.5,1-2.4,0.9c-0.1,0-0.2-0.1-0.3-0.1c-1.6-0.9-3-2.2-4-3.7
					l-0.1,0.1c-1.5,1.1-3.6,0.8-4.7-0.7c-0.1-0.2-0.3-0.4-0.4-0.6l-4.4-10c-2.8-2.6-15.5-21-18.2-25c0.7,3.1,0.9,6.9-1.1,8.1
					c-0.7,0.5-1.6,0.5-2.4,0.2c-1.5-0.8-2-3.1-2.3-5.7c-1.1-0.1-2-1.3-3.5-3.1c-0.9-1.2-1.9-2.3-2.9-3.3c-0.2-0.2-0.3-0.5-0.3-0.8
					c0.2-3.3-0.8-19.3-1-22.1c-4.8-4.2-7.2-4.9-11.1-6.1c-1.9-0.6-4.1-1.2-7.1-2.4c7.3,12.9,8.5,31,6.1,36.7c-0.5,1.3-1.2,2-2.1,2.1
					c-3.2,0.7-21.2,27.8-23.4,33.5c-0.8,2,1.1,3.9,4.3,6.6c2.7,2.3,5.4,4.7,5.9,7.7c0.1,0.5-0.2,0.9-0.7,1.1
					c-1.1,0.4-2.2,0.6-3.4,0.5c-8.8,0-19.8-9.2-20.3-9.6c-0.2-0.2-0.3-0.4-0.3-0.6c-0.3-3.8,1.3-7.6,4.4-9.9
					c7.7-19.9,10.6-24.9,17-32.8c-6.2-7.6-10.5-25.1-11.8-30.4c-11.6,9-27.5,14.9-35.4,12.9c-0.1,0-0.2-0.1-0.3-0.1
					C8.9,99,3.7,96.6-1.8,95 M-2.3,92.7c6.3,2,12.5,4.5,17.1,7.4c7.6,1.8,23.8-4.5,34.8-13.6c0.4-0.3,1.1-0.3,1.4,0.1
					c0.1,0.1,0.2,0.3,0.2,0.4c0,0.2,5,23.7,12.3,31.9c0.3,0.4,0.3,0.9,0,1.3c-6.7,8-9.4,12.8-17.3,33.1c-0.1,0.2-0.2,0.3-0.3,0.4
					c-2.5,1.8-4,4.7-3.9,7.8c2,1.6,13.2,10.3,20.6,8.7c-0.7-2-2.9-3.9-5-5.7c-3.1-2.6-6.2-5.4-4.9-8.9c2-5.1,20.3-33.9,25-34.8
					c0,0,0.3-0.1,0.7-1.1c2.2-5.8,0.8-24.8-7.7-37.3c-0.3-0.5-0.2-1.1,0.3-1.4c0.3-0.2,0.7-0.2,1-0.1c3.2,1.4,6.4,2.7,9.8,3.6
					c4,1.2,6.7,2,12.1,6.8c0.2,0.2,0.3,0.4,0.3,0.7c0,0.7,1.2,17.7,1,22.3c1,1,1.9,2.1,2.7,3.2c0.6,0.7,1.2,1.5,1.8,2.1
					c0.2-0.5,0.8-0.7,1.3-0.4c0.3,0.2,0.5,0.5,0.5,0.8c0.3,3.5,0.8,5.5,1.4,5.8c0.1,0.1,0.3,0,0.5-0.1c1.1-0.6,0.5-5.4-0.8-9.4
					c-1.6-2.1-3.4-4-4.1-4.2c-0.4,0.1-0.7,0-1-0.3c-0.4-0.3-1.3-1.1,0-11.3c0.1-0.5,0.5-0.9,1-0.9c0.5,0,0.9,0.3,1,0.8
					c0.4,2.1,1.7,4.9,2.7,4.7c0.5-0.1,1.1,0.3,1.2,0.8c0,0,0,0,0,0c0.6,2.9,3.4,11.2,3.8,12.3c6.2,9,16.5,23.6,17.9,24.6
					c0.2,0.1,0.3,0.3,0.4,0.4l4.5,10.2c0.2,0.4,0.5,0.7,0.9,0.8c0.4,0.1,0.8,0,1.2-0.2l1.1-0.8c0.3-0.2,0.6-0.2,0.9-0.1
					c0.3,0.1,0.5,0.3,0.6,0.6c0.5,1.6,2.5,3.1,3.4,3.7c0.2-0.1,0.5-0.2,0.6-0.4c0.5-0.5,1.3-2.1,0.7-6.3c-0.5-1.5-1.9-5.6-9.7-8.9
					c-0.1,0-0.2-0.1-0.2-0.1c-2.2-1.8-4.5-6.6-6.8-11.7c-2.7-5.8-6-13-8.8-13.5c-0.5-0.1-0.9-0.6-0.8-1.2c0-0.1,0.1-0.2,0.1-0.3
					c0.8-1.2,0.2-3.3-0.6-6.2c-1.2-4.4-2.8-10.5-1.2-18.7c0.1-0.3,0.3-0.6,0.7-0.8c0.3-0.1,0.7,0,1,0.2c1.3,1.2,2.2,2.9,2.5,4.7
					c0.4,1.5,0.4,1.8,1.6,1.7c6-1.5,11.7-4.5,16.4-8.6c2.8-2.4,3.2-5.8,1-9c-3.5-4.8-10.1-6.2-15.2-3.2l-0.1,0.1
					c-2.2,0.8-2.7,1-3.1,0.1c-0.1-0.1-0.1-0.3-0.1-0.5c-0.1-0.7-1.5-5.6-12.5-11c-12.8-6.3-33.9-8.4-39-6.1c-2,0.8-4.2,1.2-6.3,1.3
					c-5.6,0.6-12,1.3-15.4,9.1c-0.1,0.2-0.2,0.3-0.4,0.4c-7.5,4.6-14.1,8.9-25.2,19.3c-0.2,0.2-0.5,0.3-0.7,0.3
					c-0.3,0-0.5-0.1-0.7-0.3C13.4,85.6,7,83-0.4,81.5 M98.9,110.4c0.8,0.2,2.3,1.1,4.9,4.5c-0.8-2.5-1.8-5.6-2.3-7.5
					c-1.1-0.3-2-1.1-2.5-2.2C98.8,106.9,98.7,108.6,98.9,110.4L98.9,110.4z"/>
			</g>
		</g>
		<path class="st9" d="M134,187.4c-0.2,0-0.3,0-0.5-0.1c-0.5-0.3-0.7-0.9-0.4-1.4c0,0,0,0,0,0l43.6-78.1c0.3-0.5,0.9-0.7,1.4-0.4
			s0.7,0.9,0.4,1.4l-43.6,78.1C134.7,187.2,134.4,187.4,134,187.4z"/>
		<path class="st5" d="M102.1,91.5h-0.2c-0.5-0.1-0.9-0.6-0.8-1.2c1.1-5.6,2.1-6.6,3-7.4c0.5-0.4,0.8-1.1,0.9-1.7
			c0-0.1,0-0.1,0.1-0.2c0.5-1.2,0.9-5.3,1-7.1c0-0.1,0-0.2,0-0.3c0.1-0.7,0.1-1.2,0.7-1.4c0.4-0.1,0.8,0,1.1,0.3
			c0.2,0.3,0.2,0.6,0.2,0.9l0,0c0,0.1,0,0.2,0,0.2c-0.1,2.7-0.5,5.5-1.1,8.1l0,0c-0.2,1-0.7,2-1.5,2.7c-0.6,0.6-1.5,1.4-2.4,6.3
			C103,91.2,102.6,91.5,102.1,91.5z"/>
		<path class="st5" d="M98.3,85.3c-0.3,0-0.5-0.1-0.7-0.3c-0.6-0.6-0.4-4.8-0.1-8.2c0.2-2.7,0.5-3.3,0.8-4c0.2-0.3,0.3-0.5,0.4-2.7
			c0.1-0.7,0.1-1.7,0.2-2.6c0.1-2.3,0.2-2.8,1.1-2.8s1,1,1,1.6c0,0.2,0,0.3-0.1,0.4c0,0.3,0,0.6,0,0.8c0,0.9-0.1,1.9-0.2,2.6
			c-0.2,2.5-0.4,3-0.7,3.5c-0.1,0.3-0.4,0.7-0.6,3.2c-0.2,2.3-0.3,4.7-0.3,7c0.1,0.4,0,0.7-0.2,1C98.9,85.1,98.6,85.3,98.3,85.3z"/>
		<path class="st5" d="M91.3,86.6c-0.4,0-0.8-0.2-0.9-0.6c-0.7-2-1.1-4-1.5-6c-0.4-2.3-1.1-5.6-1.6-6.3c-0.5-0.2-0.8-0.8-0.6-1.3
			c0.2-0.4,0.6-0.7,1.1-0.6c1.5,0.2,2,2.3,3.1,7.9c0.3,1.9,0.8,3.8,1.3,5.6c0.2,0.5,0,1.1-0.5,1.3C91.6,86.6,91.5,86.6,91.3,86.6z"
			/>
	</g>
</g>
</svg>
