<svg xmlns="http://www.w3.org/2000/svg" viewBox="0 0 472.04 472.04"><defs><style>.cls-1{opacity:0.1;}.cls-2{fill:#f66;}.cls-3{fill:#cecece;}.cls-4{fill:#aaa;}.cls-5{fill:#ff4d4d;}.cls-6{fill:#cc3e3e;}.cls-7{fill:#fff;}</style></defs><title>vice_captain</title><g id="Layer_2" data-name="Layer 2"><g id="Layer_1-2" data-name="Layer 1"><g class="cls-1"><circle class="cls-2" cx="236.02" cy="236.02" r="236.02"/></g><g class="cls-1"><circle class="cls-2" cx="236.02" cy="236.02" r="179.03"/></g><path class="cls-3" d="M236.7,367.79C124.63,331,132.53,189.89,132.53,189.89,177.64,144.79,236,138.78,236,138.78s58.38,6,103.48,51.11c0,0,7.91,141.07-104.16,177.9Z"/><path class="cls-4" d="M236,351.71l-1.83-.72c-78.86-31.12-86.37-124.49-86.8-152.36l0-2.27,1.69-1.52c34.56-31,74.7-39.13,86.18-40.87l.76-.11.76.11c11.55,1.82,51.9,10.11,86.23,40.87l1.69,1.52,0,2.27a234.57,234.57,0,0,1-9.78,62.94c-13.68,44.62-39.59,74.7-77,89.42ZM157.41,200.76C158.19,229.29,166.6,312.2,236,341c33.47-13.81,56.78-41.5,69.3-82.33a224,224,0,0,0,9.28-57.88C282.81,173.18,245.12,165.47,236,164,226.86,165.42,189.41,172.93,157.41,200.76Z"/><polygon class="cls-5" points="45.48 270 72.83 297.35 45.48 324.69 45.48 325.3 132.53 325.3 132.53 270 45.48 270"/><polygon class="cls-6" points="101.44 309.67 132.53 325.3 132.53 309.67 101.44 309.67"/><polygon class="cls-5" points="426.56 270 399.21 297.35 426.56 324.69 426.56 325.3 339.5 325.3 339.5 270 426.56 270"/><rect class="cls-2" x="101.44" y="249.93" width="269.16" height="59.74"/><polygon class="cls-6" points="370.6 309.67 339.5 325.3 339.5 309.67 370.6 309.67"/><path class="cls-4" d="M174.34,199.42q1.83-.78,3.81-1.77c1.32-.66,2.61-1.39,3.87-2.17s2.46-1.62,3.61-2.5a24.63,24.63,0,0,0,3.11-2.77l6.56-.05.33,43.77-9.41.07L186,202.49a28.56,28.56,0,0,1-4.22,2.33q-2.33,1.06-4.53,1.84Z"/><path class="cls-4" d="M219.66,228.76a5.29,5.29,0,0,1-1.77,4.34,6.32,6.32,0,0,1-8.15.06,6.1,6.1,0,0,1-.06-8.65,6.35,6.35,0,0,1,8.15-.06A5.32,5.32,0,0,1,219.66,228.76Z"/><path class="cls-4" d="M244.23,220.69a6.35,6.35,0,0,0-.85-3.25,6,6,0,0,0-2.86-2.35,20,20,0,0,0-5.44-1.41,59.62,59.62,0,0,0-8.59-.44q.64-5.88,1-12t.61-11.37l23.68-.18.06,7.9-15.79.12c-.07,1.51-.16,3-.25,4.39s-.2,2.64-.32,3.69q9.22.57,13.64,4.23c3,2.44,4.43,5.85,4.47,10.23a14.68,14.68,0,0,1-1,5.63,12.27,12.27,0,0,1-3.19,4.51,15.5,15.5,0,0,1-5.38,3,24.32,24.32,0,0,1-7.6,1.13,31.77,31.77,0,0,1-3.57-.2c-1.25-.14-2.45-.32-3.61-.54s-2.2-.46-3.13-.7a12.31,12.31,0,0,1-2.15-.75l1.65-7.78a26.69,26.69,0,0,0,4.18,1.33,25.46,25.46,0,0,0,6.19.62q4.35,0,6.3-1.79A5.27,5.27,0,0,0,244.23,220.69Z"/><path class="cls-4" d="M287.68,233.25q-1.87-3.65-4.11-7.38a26.91,26.91,0,0,0-5.09-6.31c-.58.66-1.32,1.57-2.22,2.74s-1.79,2.4-2.68,3.71-1.73,2.67-2.51,4.07-1.36,2.5-1.73,3.3l-11.25.09a115.88,115.88,0,0,1,6.45-10.64q3.72-5.49,8.3-11.65L258.4,189.69l11.94-.09,8.43,12.62,8.43-12.74,11.24-.09-14,21.24a135.28,135.28,0,0,1,9.29,12.76q3.66,5.81,5.77,9.77Z"/><path class="cls-4" d="M211.26,235.72a6.53,6.53,0,0,1,3.61.8,3,3,0,0,1,1.28,2.69,3,3,0,0,1-1.26,2.75,6.52,6.52,0,0,1-3.63.87h-.74l0,3.52-2.37,0L208.11,236a13.06,13.06,0,0,1,1.63-.23C210.32,235.75,210.82,235.72,211.26,235.72Zm.16,2-.51,0-.43,0,0,3h.74a4,4,0,0,0,1.84-.34,1.3,1.3,0,0,0,.62-1.25,1.54,1.54,0,0,0-.17-.73,1.27,1.27,0,0,0-.46-.46,2.17,2.17,0,0,0-.72-.24A6.65,6.65,0,0,0,211.42,237.73Z"/><path class="cls-4" d="M227.91,241a6.49,6.49,0,0,1-.39,2.38,4.94,4.94,0,0,1-1.08,1.72,4.7,4.7,0,0,1-1.66,1.05,6,6,0,0,1-2.06.36,5.88,5.88,0,0,1-2-.33,4.68,4.68,0,0,1-1.68-1,4.73,4.73,0,0,1-1.13-1.7,6.38,6.38,0,0,1-.43-2.37,6.09,6.09,0,0,1,.41-2.38,5,5,0,0,1,1.13-1.73,4.65,4.65,0,0,1,1.66-1.05,5.76,5.76,0,0,1,2-.37,6,6,0,0,1,2,.34,4.43,4.43,0,0,1,1.67,1,4.93,4.93,0,0,1,1.14,1.71A6.38,6.38,0,0,1,227.91,241Zm-8,.06a4.57,4.57,0,0,0,.2,1.39,3.18,3.18,0,0,0,.55,1.07,2.46,2.46,0,0,0,.88.68,2.62,2.62,0,0,0,1.18.23,2.65,2.65,0,0,0,1.18-.25,2.42,2.42,0,0,0,.87-.69,3.42,3.42,0,0,0,.54-1.08,5.22,5.22,0,0,0,0-2.79,3.11,3.11,0,0,0-.56-1.07,2.37,2.37,0,0,0-.88-.69,2.79,2.79,0,0,0-1.18-.23,2.63,2.63,0,0,0-1.18.26,2.44,2.44,0,0,0-.86.7,3,3,0,0,0-.54,1.08A4.73,4.73,0,0,0,219.89,241Z"/><path class="cls-4" d="M229.84,235.7l2.36,0,.08,10.51h-2.36Z"/><path class="cls-4" d="M241.75,246.12c-.68-1.2-1.43-2.38-2.22-3.55a40,40,0,0,0-2.54-3.3l0,6.88-2.33,0-.08-10.5,1.92,0c.34.33.71.74,1.12,1.22s.82,1,1.24,1.54.85,1.12,1.27,1.71.81,1.15,1.18,1.69l-.05-6.19,2.35,0,.08,10.5Z"/><path class="cls-4" d="M253.87,235.52l0,2-3.17,0,.06,8.49-2.36,0-.06-8.49-3.17,0,0-2Z"/><path class="cls-4" d="M258.32,244.19a3.23,3.23,0,0,0,.83-.09,1.57,1.57,0,0,0,.52-.23.79.79,0,0,0,.27-.34,1.27,1.27,0,0,0,.07-.44,1,1,0,0,0-.49-.86,7.36,7.36,0,0,0-1.67-.72c-.35-.12-.69-.25-1-.41a4,4,0,0,1-.93-.58,2.85,2.85,0,0,1-.67-.86,2.74,2.74,0,0,1-.27-1.24,3.1,3.1,0,0,1,.27-1.31,2.75,2.75,0,0,1,.76-1,3.65,3.65,0,0,1,1.21-.63,5.6,5.6,0,0,1,1.6-.24,6.68,6.68,0,0,1,1.84.22,6.13,6.13,0,0,1,1.28.49l-.67,1.87a7.41,7.41,0,0,0-1-.4,4.16,4.16,0,0,0-1.3-.16,2.33,2.33,0,0,0-1.22.24.79.79,0,0,0-.36.72.77.77,0,0,0,.14.49,1.22,1.22,0,0,0,.39.35,3,3,0,0,0,.57.29c.22.08.46.17.72.25.55.2,1,.4,1.43.59a3.72,3.72,0,0,1,1,.69,2.37,2.37,0,0,1,.6.92,3.47,3.47,0,0,1,.21,1.28,2.73,2.73,0,0,1-1,2.29,5,5,0,0,1-3.11.83,8,8,0,0,1-1.25-.07,7.35,7.35,0,0,1-1-.2,4.55,4.55,0,0,1-.74-.25,5.46,5.46,0,0,1-.53-.25l.66-1.89a6.22,6.22,0,0,0,1.16.46A6.3,6.3,0,0,0,258.32,244.19Z"/><path class="cls-3" d="M85,241.69a8.79,8.79,0,1,1,8.79-8.79A8.8,8.8,0,0,1,85,241.69Zm0-13.58a4.79,4.79,0,1,0,4.79,4.79A4.8,4.8,0,0,0,85,228.11Z"/><path class="cls-4" d="M256.26,88.46a8.8,8.8,0,1,1,8.79-8.79A8.81,8.81,0,0,1,256.26,88.46Zm0-13.59a4.8,4.8,0,1,0,4.79,4.8A4.8,4.8,0,0,0,256.26,74.87Z"/><path class="cls-3" d="M206.48,116.76a8.79,8.79,0,1,1,8.79-8.79A8.8,8.8,0,0,1,206.48,116.76Zm0-13.58a4.79,4.79,0,1,0,4.79,4.79A4.8,4.8,0,0,0,206.48,103.18Z"/><path class="cls-3" d="M373.87,150a8.8,8.8,0,1,1,8.79-8.8A8.81,8.81,0,0,1,373.87,150Zm0-13.59a4.8,4.8,0,1,0,4.79,4.79A4.8,4.8,0,0,0,373.87,136.36Z"/><path class="cls-4" d="M373.87,228a8.8,8.8,0,1,1,8.79-8.79A8.81,8.81,0,0,1,373.87,228Zm0-13.59a4.8,4.8,0,1,0,4.79,4.8A4.8,4.8,0,0,0,373.87,214.44Z"/><rect class="cls-4" x="246.66" y="136.19" width="5.35" height="17.69" rx="2.11" ry="2.11" transform="translate(5.12 298.53) rotate(-62.34)"/><rect class="cls-4" x="240.48" y="142.36" width="17.69" height="5.35" rx="2.11" ry="2.11" transform="translate(5.12 298.53) rotate(-62.34)"/><rect class="cls-3" x="320.03" y="123.33" width="17.69" height="5.35" rx="2.11" ry="2.11" transform="translate(75.69 370.82) rotate(-65)"/><rect class="cls-3" x="326.2" y="117.15" width="5.35" height="17.69" rx="2.11" ry="2.11" transform="translate(75.69 370.82) rotate(-65)"/><rect class="cls-3" x="136.37" y="125.45" width="5.35" height="17.69" rx="2.11" ry="2.11" transform="translate(-53.29 153.69) rotate(-49.76)"/><rect class="cls-3" x="130.19" y="131.62" width="17.69" height="5.35" rx="2.11" ry="2.11" transform="translate(-53.29 153.69) rotate(-49.76)"/><rect class="cls-4" x="69.19" y="150.17" width="17.69" height="5.35" rx="2.11" ry="2.11" transform="translate(-92.54 134.08) rotate(-56.67)"/><rect class="cls-4" x="75.37" y="144" width="5.35" height="17.69" rx="2.11" ry="2.11" transform="translate(-92.54 134.08) rotate(-56.67)"/><path class="cls-7" d="M126.56,291.82q-1.43-3-2.8-6.21t-2.62-6.36q-1.24-3.15-2.28-6c-.7-1.92-1.29-3.63-1.8-5.14H123c.45,1.37.94,2.85,1.49,4.44s1.09,3.16,1.66,4.74,1.1,3.08,1.62,4.52,1,2.69,1.49,3.74c.44-1,.93-2.29,1.46-3.73s1.07-3,1.64-4.52,1.12-3.16,1.66-4.74,1-3.07,1.49-4.45h5.69c-.54,1.51-1.15,3.23-1.84,5.14s-1.45,3.93-2.27,6-1.69,4.23-2.6,6.37-1.84,4.22-2.79,6.2Z"/><path class="cls-7" d="M144.2,268.08h5.34v23.74H144.2Z"/><path class="cls-7" d="M165.85,292.3q-5.79,0-8.82-3.22c-2-2.15-3-5.19-3-9.15a14.05,14.05,0,0,1,.93-5.26,11.39,11.39,0,0,1,2.53-3.9,10.77,10.77,0,0,1,3.84-2.42,14.07,14.07,0,0,1,4.83-.82,15.29,15.29,0,0,1,2.74.22,16.78,16.78,0,0,1,2.16.52,9.55,9.55,0,0,1,1.54.6,8.52,8.52,0,0,1,.89.48l-1.54,4.31a12.56,12.56,0,0,0-2.55-1,12.34,12.34,0,0,0-3.31-.41,7.4,7.4,0,0,0-2.41.41,5.31,5.31,0,0,0-2.09,1.32,6.54,6.54,0,0,0-1.46,2.35,10,10,0,0,0-.55,3.49,12.49,12.49,0,0,0,.36,3.07,6.49,6.49,0,0,0,1.17,2.45,5.65,5.65,0,0,0,2.11,1.62,7.44,7.44,0,0,0,3.15.6,14.72,14.72,0,0,0,2.09-.13,14.35,14.35,0,0,0,1.64-.33,8.18,8.18,0,0,0,1.27-.43l1-.44,1.48,4.28a12.35,12.35,0,0,1-3.19,1.23A18.37,18.37,0,0,1,165.85,292.3Z"/><path class="cls-7" d="M177.22,291.82V268.08h16v4.49H182.57v4.66h9.49v4.38h-9.49v5.72H194v4.49Z"/><path class="cls-7" d="M217,292.3q-5.79,0-8.82-3.22c-2-2.15-3-5.19-3-9.15a14.26,14.26,0,0,1,.92-5.26,11.41,11.41,0,0,1,2.54-3.9,10.6,10.6,0,0,1,3.84-2.42,14,14,0,0,1,4.83-.82,15.36,15.36,0,0,1,2.74.22,17.2,17.2,0,0,1,2.16.52,9.93,9.93,0,0,1,1.54.6,8.52,8.52,0,0,1,.89.48l-1.54,4.31a12.4,12.4,0,0,0-5.86-1.4,7.45,7.45,0,0,0-2.42.41,5.38,5.38,0,0,0-2.09,1.32,6.52,6.52,0,0,0-1.45,2.35,9.72,9.72,0,0,0-.55,3.49,12.49,12.49,0,0,0,.36,3.07,6.62,6.62,0,0,0,1.16,2.45,5.65,5.65,0,0,0,2.11,1.62,7.5,7.5,0,0,0,3.15.6,14.53,14.53,0,0,0,2.09-.13,14.12,14.12,0,0,0,1.65-.33,7.7,7.7,0,0,0,1.26-.43l1-.44,1.47,4.28a12.06,12.06,0,0,1-3.19,1.23A18.32,18.32,0,0,1,217,292.3Z"/><path class="cls-7" d="M245.3,291.82c-.27-.82-.55-1.67-.86-2.54s-.6-1.74-.91-2.6h-9.27l-.9,2.61c-.3.87-.58,1.71-.84,2.53H227q1.34-3.84,2.54-7.09c.8-2.17,1.59-4.21,2.35-6.13s1.53-3.74,2.27-5.47,1.52-3.41,2.32-5.05h5.07c.78,1.64,1.55,3.33,2.31,5.05s1.52,3.55,2.28,5.47,1.56,4,2.36,6.13,1.65,4.53,2.55,7.09Zm-6.43-18.36c-.12.34-.29.81-.52,1.41s-.49,1.27-.78,2.05l-1,2.57c-.36.94-.73,1.92-1.1,2.94h6.79l-1.06-2.95c-.34-.93-.66-1.79-1-2.57s-.58-1.46-.81-2.06S239,273.8,238.87,273.46Z"/><path class="cls-7" d="M261.19,267.81c3.55,0,6.26.62,8.16,1.86s2.84,3.29,2.84,6.12-1,4.91-2.87,6.18-4.67,1.9-8.23,1.9h-1.68v7.95h-5.34v-23.4a29.6,29.6,0,0,1,3.7-.48C259.07,267.85,260.21,267.81,261.19,267.81Zm.35,4.55c-.39,0-.77,0-1.15,0l-1,.06v6.86h1.68a9,9,0,0,0,4.18-.76,2.89,2.89,0,0,0,1.41-2.81,3.35,3.35,0,0,0-.36-1.64,2.88,2.88,0,0,0-1-1.05,4.67,4.67,0,0,0-1.63-.54A12.61,12.61,0,0,0,261.54,272.36Z"/><path class="cls-7" d="M294.19,268.08v4.56H287v19.18h-5.35V272.64h-7.16v-4.56Z"/><path class="cls-7" d="M310.73,291.82c-.26-.82-.55-1.67-.85-2.54s-.61-1.74-.91-2.6H299.7l-.9,2.61c-.3.87-.58,1.71-.84,2.53h-5.55q1.33-3.84,2.54-7.09t2.35-6.13q1.15-2.88,2.27-5.47c.75-1.72,1.52-3.41,2.32-5.05H307c.78,1.64,1.55,3.33,2.3,5.05s1.52,3.55,2.29,5.47,1.56,4,2.36,6.13,1.65,4.53,2.55,7.09Zm-6.42-18.36c-.12.34-.29.81-.52,1.41l-.79,2.05c-.29.78-.62,1.64-1,2.57s-.73,1.92-1.11,2.94h6.79c-.36-1-.71-2-1.05-2.95s-.67-1.79-1-2.57-.58-1.46-.81-2.06S304.45,273.8,304.31,273.46Z"/><path class="cls-7" d="M319.51,268.08h5.34v23.74h-5.34Z"/><path class="cls-7" d="M346.26,291.82q-2.29-4.08-5-8.05a82.91,82.91,0,0,0-5.69-7.5v15.55h-5.28V268.08h4.35c.76.75,1.59,1.68,2.5,2.77s1.85,2.27,2.8,3.52,1.89,2.53,2.82,3.87,1.82,2.62,2.64,3.85v-14h5.31v23.74Z"/></g></g></svg>